<svg xmlns="http://www.w3.org/2000/svg" width="64" height="64" viewBox="0 0 64 64">
  <g fill="none" fill-rule="evenodd">
    <rect width="64" height="64" rx="4"/>
    <path fill="#1890FF" fill-rule="nonzero" d="M43.4698795,31.9036145 C46.8767445,31.9036145 49.6385542,34.6654242 49.6385542,38.0722892 C49.6385542,41.4791541 46.8767445,44.2409639 43.4698795,44.2409639 C40.0630146,44.2409639 37.3012048,41.4791541 37.3012048,38.0722892 C37.3012048,34.6654242 40.0630146,31.9036145 43.4698795,31.9036145 Z M49.6385542,11.8554217 L49.6385542,25.7349398 L46.5542169,25.7349398 L46.5542169,11.8554217 L49.6385542,11.8554217 Z M45.0120482,14.939759 L45.0120482,25.7349398 L41.9277108,25.7349398 L41.9277108,14.939759 L45.0120482,14.939759 Z M54.2650602,8 L54.2650602,25.7349398 L51.1807229,25.7349398 L51.1807229,8 L54.2650602,8 Z M40.3855422,18.0240964 L40.3855422,25.7349398 L37.3012048,25.7349398 L37.3012048,18.0240964 L40.3855422,18.0240964 Z"/>
    <path fill="#003A8C" fill-rule="nonzero" d="M21.1084337,12.626506 C28.3365783,12.626506 34.2168675,18.5067952 34.2168675,25.7349398 C34.2168675,31.6213976 30.3159518,36.6126265 24.9638554,38.262747 L24.9638554,38.262747 L24.9638554,40.3855422 L26.5060241,40.3855422 L26.5060241,41.9277108 L24.9638554,41.9277108 L24.9638554,51.9518072 C24.9638554,54.0776867 23.2343133,55.8072289 21.1084337,55.8072289 C18.9825542,55.8072289 17.253012,54.0776867 17.253012,51.9518072 L17.253012,51.9518072 L17.253012,41.9277108 L15.7108434,41.9277108 L15.7108434,40.3855422 L17.253012,40.3855422 L17.253012,38.262747 C11.9009157,36.6126265 8,31.6213976 8,25.7349398 C8,18.5067952 13.8802892,12.626506 21.1084337,12.626506 Z M23.4216867,41.9277108 L18.7951807,41.9277108 L18.7951807,51.9518072 C18.7951807,53.2271807 19.8330602,54.2650602 21.1084337,54.2650602 C22.3838072,54.2650602 23.4216867,53.2271807 23.4216867,51.9518072 L23.4216867,51.9518072 L23.4216867,41.9277108 Z M43.4698795,31.1325301 C48.0570602,31.1325301 52.4383614,33.3231807 55.1903614,36.9927711 L55.1903614,36.9927711 L56,38.0722892 L55.1903614,39.1518072 C52.4383614,42.8213976 48.0570602,45.0120482 43.4698795,45.0120482 C38.8826988,45.0120482 34.5013976,42.8213976 31.7493976,39.1518072 L31.7493976,39.1518072 L30.939759,38.0722892 L31.7493976,36.9927711 C34.5013976,33.3231807 38.8826988,31.1325301 43.4698795,31.1325301 Z M43.4698795,32.6746988 C39.3661687,32.6746988 35.4459759,34.6347952 32.9831325,37.9180723 L32.9831325,37.9180723 L32.8674699,38.0722892 L32.9831325,38.226506 C35.4459759,41.5097831 39.3661687,43.4698795 43.4698795,43.4698795 C47.5735904,43.4698795 51.4937831,41.5097831 53.9566265,38.226506 L53.9566265,38.226506 L54.0722892,38.0722892 L53.9566265,37.9180723 C51.4937831,34.6347952 47.5735904,32.6746988 43.4698795,32.6746988 Z M43.4698795,34.2168675 C45.595759,34.2168675 47.3253012,35.9464096 47.3253012,38.0722892 C47.3253012,40.1981687 45.595759,41.9277108 43.4698795,41.9277108 C41.344,41.9277108 39.6144578,40.1981687 39.6144578,38.0722892 C39.6144578,35.9464096 41.344,34.2168675 43.4698795,34.2168675 Z M43.4698795,35.7590361 C42.194506,35.7590361 41.1566265,36.7969157 41.1566265,38.0722892 C41.1566265,39.3476627 42.194506,40.3855422 43.4698795,40.3855422 C44.745253,40.3855422 45.7831325,39.3476627 45.7831325,38.0722892 C45.7831325,36.7969157 44.745253,35.7590361 43.4698795,35.7590361 Z M23.4216867,38.6266988 C22.6691084,38.7608675 21.8987952,38.8433735 21.1084337,38.8433735 C20.3180723,38.8433735 19.547759,38.7608675 18.7951807,38.6266988 L18.7951807,38.6266988 L18.7951807,40.3855422 L23.4216867,40.3855422 Z M21.1084337,14.1686747 C14.7307952,14.1686747 9.54216867,19.3573012 9.54216867,25.7349398 C9.54216867,32.1125783 14.7307952,37.3012048 21.1084337,37.3012048 C27.4860723,37.3012048 32.6746988,32.1125783 32.6746988,25.7349398 C32.6746988,19.3573012 27.4860723,14.1686747 21.1084337,14.1686747 Z M21.1084337,15.7108434 C26.6355663,15.7108434 31.1325301,20.2078072 31.1325301,25.7349398 C31.1325301,31.2620723 26.6355663,35.7590361 21.1084337,35.7590361 C15.5813012,35.7590361 11.0843373,31.2620723 11.0843373,25.7349398 C11.0843373,20.2078072 15.5813012,15.7108434 21.1084337,15.7108434 Z M21.1084337,17.253012 C16.4318072,17.253012 12.626506,21.0583133 12.626506,25.7349398 C12.626506,30.4115663 16.4318072,34.2168675 21.1084337,34.2168675 C25.7850602,34.2168675 29.5903614,30.4115663 29.5903614,25.7349398 C29.5903614,21.0583133 25.7850602,17.253012 21.1084337,17.253012 Z M21.8795181,24.9638554 L21.8795181,26.5060241 L20.3373494,26.5060241 L20.3373494,24.9638554 L21.8795181,24.9638554 Z M24.9638554,24.9638554 L24.9638554,26.5060241 L23.4216867,26.5060241 L23.4216867,24.9638554 L24.9638554,24.9638554 Z M28.0481928,24.9638554 L28.0481928,26.5060241 L26.5060241,26.5060241 L26.5060241,24.9638554 L28.0481928,24.9638554 Z M18.7951807,24.9638554 L18.7951807,26.5060241 L17.253012,26.5060241 L17.253012,24.9638554 L18.7951807,24.9638554 Z M15.7108434,24.9638554 L15.7108434,26.5060241 L14.1686747,26.5060241 L14.1686747,24.9638554 L15.7108434,24.9638554 Z M55.8072289,24.9638554 L55.8072289,26.5060241 L35.7590361,26.5060241 L35.7590361,24.9638554 L55.8072289,24.9638554 Z"/>
  </g>
</svg>
