<svg xmlns="http://www.w3.org/2000/svg" width="64" height="64" viewBox="0 0 64 64">
  <g fill="none" fill-rule="evenodd">
    <rect width="64" height="64" rx="4"/>
    <path fill="#1890FF" fill-rule="nonzero" d="M43.6129032,35.8709677 C47.8818065,35.8709677 51.3548387,39.344 51.3548387,43.6129032 C51.3548387,47.8818065 47.8818065,51.3548387 43.6129032,51.3548387 C39.344,51.3548387 35.8709677,47.8818065 35.8709677,43.6129032 C35.8709677,39.344 39.344,35.8709677 43.6129032,35.8709677 Z M43.6129032,39.7419355 C41.4784516,39.7419355 39.7419355,41.4784516 39.7419355,43.6129032 C39.7419355,45.7473548 41.4784516,47.483871 43.6129032,47.483871 C45.7473548,47.483871 47.483871,45.7473548 47.483871,43.6129032 C47.483871,41.4784516 45.7473548,39.7419355 43.6129032,39.7419355 Z M25.0322581,16.516129 L25.0322581,27.3548387 L11.0967742,27.3548387 L11.0967742,16.516129 L25.0322581,16.516129 Z"/>
    <path fill="#003A8C" fill-rule="nonzero" d="M50.5806452,8 C53.5690323,8 56,10.4317419 56,13.4193548 C56,16.1437419 53.9770323,18.3989677 51.3548387,18.7767742 L51.3548387,18.7767742 L51.3548387,33.9587097 C54.1829677,36.2309677 56,39.7117419 56,43.6129032 C56,50.4428387 50.4428387,56 43.6129032,56 C37.0446452,56 31.667871,50.8562581 31.2652903,44.3870968 L31.2652903,44.3870968 L8,44.3870968 L8,13.4193548 L45.1612903,13.4193548 C45.1612903,10.4317419 47.5922581,8 50.5806452,8 Z M44.3870968,32.8136774 L44.3870968,35.9104516 C44.1323871,35.8849032 43.8745806,35.8709677 43.6129032,35.8709677 C43.3512258,35.8709677 43.0934194,35.8849032 42.8387097,35.9104516 L42.8387097,35.9104516 L42.8387097,32.8136774 C37.2234839,33.2131613 32.7741935,37.8978065 32.7741935,43.6129032 C32.7741935,45.3091613 33.1767742,46.9101935 33.8750968,48.3409032 L33.8750968,48.3409032 L36.5607742,46.7901935 C36.7752258,47.264 37.036129,47.7114839 37.3380645,48.1295484 L37.3380645,48.1295484 L34.6415484,49.6864516 C36.5925161,52.5602581 39.8859355,54.4516129 43.6129032,54.4516129 C47.339871,54.4516129 50.6332903,52.5602581 52.5842581,49.6864516 L52.5842581,49.6864516 L49.8877419,48.1295484 C50.1889032,47.7114839 50.4505806,47.2647742 50.6650323,46.7901935 L50.6650323,46.7901935 L53.3507097,48.3409032 C54.0490323,46.9101935 54.4516129,45.3091613 54.4516129,43.6129032 C54.4516129,37.8978065 50.0023226,33.2131613 44.3870968,32.8136774 L44.3870968,32.8136774 Z M43.6129032,38.9677419 C46.1747097,38.9677419 48.2580645,41.0510968 48.2580645,43.6129032 C48.2580645,46.1747097 46.1747097,48.2580645 43.6129032,48.2580645 C41.0510968,48.2580645 38.9677419,46.1747097 38.9677419,43.6129032 C38.9677419,41.0510968 41.0510968,38.9677419 43.6129032,38.9677419 Z M43.6129032,40.516129 C41.9050323,40.516129 40.516129,41.9050323 40.516129,43.6129032 C40.516129,45.3207742 41.9050323,46.7096774 43.6129032,46.7096774 C45.3207742,46.7096774 46.7096774,45.3207742 46.7096774,43.6129032 C46.7096774,41.9050323 45.3207742,40.516129 43.6129032,40.516129 Z M45.3896774,14.9677419 L9.5483871,14.9677419 L9.5483871,42.8387097 L31.2652903,42.8387097 C31.2978065,42.3138065 31.3550968,41.795871 31.451871,41.2903226 L31.451871,41.2903226 L29.6774194,41.2903226 L29.6774194,32 L34.3225806,32 L34.3225806,35.4474839 C36.5940645,32.8655484 39.9122581,31.2258065 43.6129032,31.2258065 C45.8704516,31.2258065 47.9816774,31.8428387 49.8064516,32.9027097 L49.8064516,32.9027097 L49.8064516,18.7775484 C48.8905806,18.6451613 48.0498065,18.2851613 47.3414194,17.7540645 L47.3414194,17.7540645 L42.6056774,22.4890323 C42.7512258,22.7917419 42.8387097,23.1261935 42.8387097,23.483871 C42.8387097,24.7643871 41.7966452,25.8064516 40.516129,25.8064516 C39.2356129,25.8064516 38.1935484,24.7643871 38.1935484,23.483871 C38.1935484,23.1261935 38.2810323,22.7917419 38.4258065,22.4882581 L38.4258065,22.4882581 L36.8658065,20.9282581 C36.5630968,21.0738065 36.2286452,21.1612903 35.8709677,21.1612903 C35.5132903,21.1612903 35.1788387,21.0738065 34.8753548,20.9290323 L34.8753548,20.9290323 L30.9927742,24.8116129 C31.1383226,25.1143226 31.2258065,25.4487742 31.2258065,25.8064516 C31.2258065,27.0869677 30.1837419,28.1290323 28.9032258,28.1290323 C27.6227097,28.1290323 26.5806452,27.0869677 26.5806452,25.8064516 C26.5806452,24.5259355 27.6227097,23.483871 28.9032258,23.483871 C29.2609032,23.483871 29.5953548,23.5713548 29.8988387,23.716129 L29.8988387,23.716129 L33.7814194,19.8335484 C33.635871,19.5308387 33.5483871,19.1963871 33.5483871,18.8387097 C33.5483871,17.5581935 34.5904516,16.516129 35.8709677,16.516129 C37.1514839,16.516129 38.1935484,17.5581935 38.1935484,18.8387097 C38.1935484,19.1963871 38.1060645,19.5308387 37.9612903,19.8343226 L37.9612903,19.8343226 L39.5212903,21.3943226 C39.824,21.2487742 40.1584516,21.1612903 40.516129,21.1612903 C40.8738065,21.1612903 41.2082581,21.2487742 41.5117419,21.3943226 L41.5117419,21.3943226 L46.2467097,16.6593548 C45.8689032,16.1545806 45.5747097,15.5855484 45.3896774,14.9677419 L45.3896774,14.9677419 Z M21.9354839,35.0967742 L21.9354839,41.2903226 L17.2903226,41.2903226 L17.2903226,35.0967742 L21.9354839,35.0967742 Z M15.7419355,33.5483871 L15.7419355,41.2903226 L11.0967742,41.2903226 L11.0967742,33.5483871 L15.7419355,33.5483871 Z M28.1290323,28.9032258 L28.1290323,41.2903226 L23.483871,41.2903226 L23.483871,28.9032258 L28.1290323,28.9032258 Z M14.1935484,35.0967742 L12.6451613,35.0967742 L12.6451613,39.7419355 L14.1935484,39.7419355 L14.1935484,35.0967742 Z M32.7741935,33.5483871 L31.2258065,33.5483871 L31.2258065,39.7419355 L31.8536774,39.7419355 C32.0967742,39.0049032 32.4033548,38.2980645 32.7741935,37.6291613 L32.7741935,37.6291613 L32.7741935,33.5483871 Z M20.3870968,36.6451613 L18.8387097,36.6451613 L18.8387097,39.7419355 L20.3870968,39.7419355 L20.3870968,36.6451613 Z M26.5806452,30.4516129 L25.0322581,30.4516129 L25.0322581,39.7419355 L26.5806452,39.7419355 L26.5806452,30.4516129 Z M12.6451613,25.8064516 L12.6451613,27.3548387 L11.0967742,27.3548387 L11.0967742,25.8064516 L12.6451613,25.8064516 Z M25.0322581,25.8064516 L25.0322581,27.3548387 L14.1935484,27.3548387 L14.1935484,25.8064516 L25.0322581,25.8064516 Z M28.9032258,25.0322581 C28.4766452,25.0322581 28.1290323,25.3790968 28.1290323,25.8064516 C28.1290323,26.2338065 28.4766452,26.5806452 28.9032258,26.5806452 C29.3298065,26.5806452 29.6774194,26.2338065 29.6774194,25.8064516 C29.6774194,25.3790968 29.3298065,25.0322581 28.9032258,25.0322581 Z M40.516129,22.7096774 C40.0895484,22.7096774 39.7419355,23.0565161 39.7419355,23.483871 C39.7419355,23.9112258 40.0895484,24.2580645 40.516129,24.2580645 C40.9427097,24.2580645 41.2903226,23.9112258 41.2903226,23.483871 C41.2903226,23.0565161 40.9427097,22.7096774 40.516129,22.7096774 Z M12.6451613,22.7096774 L12.6451613,24.2580645 L11.0967742,24.2580645 L11.0967742,22.7096774 L12.6451613,22.7096774 Z M25.0322581,22.7096774 L25.0322581,24.2580645 L14.1935484,24.2580645 L14.1935484,22.7096774 L25.0322581,22.7096774 Z M12.6451613,19.6129032 L12.6451613,21.1612903 L11.0967742,21.1612903 L11.0967742,19.6129032 L12.6451613,19.6129032 Z M25.0322581,19.6129032 L25.0322581,21.1612903 L14.1935484,21.1612903 L14.1935484,19.6129032 L25.0322581,19.6129032 Z M35.8709677,18.0645161 C35.4443871,18.0645161 35.0967742,18.4113548 35.0967742,18.8387097 C35.0967742,19.2660645 35.4443871,19.6129032 35.8709677,19.6129032 C36.2975484,19.6129032 36.6451613,19.2660645 36.6451613,18.8387097 C36.6451613,18.4113548 36.2975484,18.0645161 35.8709677,18.0645161 Z M12.6451613,16.516129 L12.6451613,18.0645161 L11.0967742,18.0645161 L11.0967742,16.516129 L12.6451613,16.516129 Z M25.0322581,16.516129 L25.0322581,18.0645161 L14.1935484,18.0645161 L14.1935484,16.516129 L25.0322581,16.516129 Z M50.5806452,9.5483871 C48.4461935,9.5483871 46.7096774,11.2849032 46.7096774,13.4193548 C46.7096774,15.5538065 48.4461935,17.2903226 50.5806452,17.2903226 C52.7150968,17.2903226 54.4516129,15.5538065 54.4516129,13.4193548 C54.4516129,11.2849032 52.7150968,9.5483871 50.5806452,9.5483871 Z"/>
  </g>
</svg>
