<svg xmlns="http://www.w3.org/2000/svg" width="64" height="64" viewBox="0 0 64 64">
  <g fill="none" fill-rule="evenodd">
    <rect width="64" height="64" rx="4"/>
    <path fill="#003A8C" fill-rule="nonzero" d="M51.8001512,21.9354839 C53.4150705,20.9715221 54.4516129,19.2220263 54.4516129,17.2903226 C54.4516129,15.1828377 53.2260585,13.2825101 51.3480343,12.3949092 C51.217994,9.94947074 49.1872479,8 46.7096774,8 C45.0955141,8 43.671875,8.82673894 42.8387097,10.0802672 C42.0055444,8.82673894 40.5819053,8 38.9677419,8 C36.4879032,8 34.4620715,9.95400703 34.3350554,12.4028478 C32.4589214,13.2908266 31.2258065,15.1820817 31.2258065,17.2903226 C31.2258065,19.2235383 32.2646169,20.9722782 33.8852067,21.9354839 L15.7419355,21.9354839 L15.7419355,15.7419355 L11.8709677,15.7419355 C9.7366431,15.7419355 8,17.4785786 8,19.6129032 L8,52.1290323 C8,54.2633569 9.7366431,56 11.8709677,56 L56,56 L56,21.9354839 L51.8001512,21.9354839 Z M46.7096774,9.5483871 C48.4175908,9.5483871 49.8064516,10.9372479 49.7996472,12.6916583 C49.7917086,12.7449597 49.7849043,12.7986392 49.7815021,12.8526965 L49.7414315,13.4424143 L50.3005293,13.6367188 C51.8564768,14.1772933 52.9032258,15.6459173 52.9032258,17.2903226 C52.9032258,18.6186995 52.2148438,19.8242188 51.1355847,20.5280998 C50.5371724,18.6527218 48.780494,17.2903226 46.7096774,17.2903226 L46.7096774,18.8387097 C48.4175908,18.8387097 49.8064516,20.2275705 49.8064516,21.9354839 C49.8064516,23.6433972 48.4175908,25.0322581 46.7096774,25.0322581 C45.0017641,25.0322581 43.6129032,23.6433972 43.6129032,21.9354839 L43.6129032,12.6451613 C43.6129032,10.9372479 45.0017641,9.5483871 46.7096774,9.5483871 Z M44.6827117,42.8387097 L42.8387097,46.5270917 L40.9947076,42.8387097 L44.6827117,42.8387097 Z M45.1612903,41.2903226 L43.6129032,41.2903226 L43.6129032,38.1935484 L42.0645161,38.1935484 L42.0645161,41.2903226 L40.516129,41.2903226 L40.516129,26.3073336 C41.092994,26.1020666 41.6176915,25.7917086 42.0645161,25.390625 L42.0645161,36.6451613 L43.6129032,36.6451613 L43.6129032,25.390625 C44.0597279,25.7917086 44.5844254,26.1020666 45.1612903,26.3073336 L45.1612903,41.2903226 Z M32.7741935,17.2903226 C32.7741935,15.9619456 33.4625756,14.7564264 34.5425908,14.0525454 C35.140247,15.9279234 36.8969254,17.2903226 38.9677419,17.2903226 L38.9677419,15.7419355 C37.2598286,15.7419355 35.8709677,14.3530746 35.8709677,12.6451613 C35.8709677,10.9372479 37.2598286,9.5483871 38.9677419,9.5483871 C40.6756553,9.5483871 42.0645161,10.9372479 42.0645161,12.6451613 L42.0645161,21.9354839 C42.0645161,23.6433972 40.6756553,25.0322581 38.9677419,25.0322581 C37.2598286,25.0322581 35.8709677,23.6433972 35.8777721,21.8889869 C35.8857107,21.8356855 35.8925151,21.782006 35.8959173,21.7279486 L35.9359879,21.1374748 L35.3768901,20.9427924 C33.8209425,20.4033518 32.7741935,18.9347279 32.7741935,17.2903226 L32.7741935,17.2903226 Z M9.5483871,19.6129032 C9.5483871,18.3325353 10.5905998,17.2903226 11.8709677,17.2903226 L14.1935484,17.2903226 L14.1935484,48.2580645 L11.8709677,48.2580645 C11,48.2580645 10.1955645,48.546875 9.5483871,49.0337702 L9.5483871,19.6129032 Z M54.4516129,54.4516129 L11.8709677,54.4516129 C10.5905998,54.4516129 9.5483871,53.4094002 9.5483871,52.1290323 C9.5483871,50.8486643 10.5905998,49.8064516 11.8709677,49.8064516 L15.7419355,49.8064516 L15.7419355,23.483871 L34.5890877,23.483871 C35.2275705,25.2862903 36.9494707,26.5806452 38.9677419,26.5806452 L38.9677419,42.2471018 L42.8387097,49.9890373 L46.7096774,42.2471018 L46.7096774,26.5806452 C48.7279486,26.5806452 50.4445565,25.2855343 51.0837954,23.483871 L54.4516129,23.483871 L54.4516129,54.4516129 Z"/>
    <polygon fill="#003A8C" fill-rule="nonzero" points="34.323 51.355 51.355 51.355 51.355 52.903 34.323 52.903"/>
    <polygon fill="#1890FF" fill-rule="nonzero" points="17.29 38.968 32.774 38.968 32.774 25.032 17.29 25.032"/>
    <polygon fill="#003A8C" fill-rule="nonzero" points="20.387 28.129 29.677 28.129 29.677 29.677 20.387 29.677"/>
    <polygon fill="#003A8C" fill-rule="nonzero" points="26.581 31.226 29.677 31.226 29.677 32.774 26.581 32.774"/>
    <polygon fill="#003A8C" fill-rule="nonzero" points="20.387 31.226 25.032 31.226 25.032 32.774 20.387 32.774"/>
    <polygon fill="#003A8C" fill-rule="nonzero" points="20.387 34.323 29.677 34.323 29.677 35.871 20.387 35.871"/>
    <path fill="#003A8C" fill-rule="nonzero" d="M23.483871,40.516129 C20.0688005,40.516129 17.2903226,43.2946069 17.2903226,46.7096774 C17.2903226,50.1247479 20.0688005,52.9032258 23.483871,52.9032258 C26.8989415,52.9032258 29.6774194,50.1247479 29.6774194,46.7096774 C29.6774194,43.2946069 26.8989415,40.516129 23.483871,40.516129 Z M23.483871,51.3548387 C20.922001,51.3548387 18.8387097,49.2715474 18.8387097,46.7096774 C18.8387097,44.1478075 20.922001,42.0645161 23.483871,42.0645161 C26.0457409,42.0645161 28.1290323,44.1478075 28.1290323,46.7096774 C28.1290323,49.2715474 26.0457409,51.3548387 23.483871,51.3548387 Z"/>
  </g>
</svg>
