<svg xmlns="http://www.w3.org/2000/svg" width="64" height="64" viewBox="0 0 64 64">
  <g fill="none" fill-rule="evenodd">
    <rect width="64" height="64" rx="4"/>
    <g fill-rule="nonzero" transform="translate(12 8)">
      <rect width="38.71" height="10.839" x=".774" y="18.581" rx="1.935"/>
      <path fill="#0086F6" d="M3.09677419,15.483871 L3.09677419,18.5806452 L-8.74855743e-14,18.5806452 L-8.74855743e-14,15.483871 L3.09677419,15.483871 Z M8.51612903,15.483871 L8.51612903,18.5806452 L5.41935484,18.5806452 L5.41935484,15.483871 L8.51612903,15.483871 Z M13.9354839,15.483871 L13.9354839,18.5806452 L10.8387097,18.5806452 L10.8387097,15.483871 L13.9354839,15.483871 Z M3.09677419,2.5313085e-14 L3.09677419,3.09677419 L-8.74855743e-14,3.09677419 L-8.74855743e-14,2.5313085e-14 L3.09677419,2.5313085e-14 Z M8.51612903,2.5313085e-14 L8.51612903,3.09677419 L5.41935484,3.09677419 L5.41935484,2.5313085e-14 L8.51612903,2.5313085e-14 Z M13.9354839,2.5313085e-14 L13.9354839,3.09677419 L10.8387097,3.09677419 L10.8387097,2.5313085e-14 L13.9354839,2.5313085e-14 Z" transform="translate(3.871 22.452)"/>
      <rect width="38.71" height="10.839" x=".774" y="3.097" rx="1.935"/>
      <path fill="#0086F6" d="M6.96774194,6.96774194 L6.96774194,10.0645161 L3.87096774,10.0645161 L3.87096774,6.96774194 L6.96774194,6.96774194 Z M12.3870968,6.96774194 L12.3870968,10.0645161 L9.29032258,10.0645161 L9.29032258,6.96774194 L12.3870968,6.96774194 Z M17.8064516,6.96774194 L17.8064516,10.0645161 L14.7096774,10.0645161 L14.7096774,6.96774194 L17.8064516,6.96774194 Z"/>
      <rect width="38.71" height="10.839" x=".774" y="34.065" rx="1.935"/>
      <polygon points="17.032 .774 23.226 .774 23.226 3.097 17.032 3.097"/>
      <polygon points="17.032 44.903 23.226 44.903 23.226 47.226 17.032 47.226"/>
      <polygon fill="#0086F6" points="4.645 13.935 35.613 13.935 35.613 18.581 4.645 18.581"/>
      <polygon fill="#0086F6" points="4.645 29.419 35.613 29.419 35.613 34.065 4.645 34.065"/>
      <path fill="#003A8C" d="M6.96774194 21.6774194L3.87096774 21.6774194C3.44339245 21.6774194 3.09677419 22.0240376 3.09677419 22.4516129L3.09677419 25.5483871C3.09677419 25.9759624 3.44339245 26.3225806 3.87096774 26.3225806L6.96774194 26.3225806C7.39531723 26.3225806 7.74193548 25.9759624 7.74193548 25.5483871L7.74193548 22.4516129C7.74193548 22.0240376 7.39531723 21.6774194 6.96774194 21.6774194zM6.19354839 24.7741935L4.64516129 24.7741935 4.64516129 23.2258065 6.19354839 23.2258065 6.19354839 24.7741935zM12.3870968 21.6774194L9.29032258 21.6774194C8.86274729 21.6774194 8.51612903 22.0240376 8.51612903 22.4516129L8.51612903 25.5483871C8.51612903 25.9759624 8.86274729 26.3225806 9.29032258 26.3225806L12.3870968 26.3225806C12.8146721 26.3225806 13.1612903 25.9759624 13.1612903 25.5483871L13.1612903 22.4516129C13.1612903 22.0240376 12.8146721 21.6774194 12.3870968 21.6774194zM11.6129032 24.7741935L10.0645161 24.7741935 10.0645161 23.2258065 11.6129032 23.2258065 11.6129032 24.7741935zM17.8064516 21.6774194L14.7096774 21.6774194C14.2821021 21.6774194 13.9354839 22.0240376 13.9354839 22.4516129L13.9354839 25.5483871C13.9354839 25.9759624 14.2821021 26.3225806 14.7096774 26.3225806L17.8064516 26.3225806C18.2340269 26.3225806 18.5806452 25.9759624 18.5806452 25.5483871L18.5806452 22.4516129C18.5806452 22.0240376 18.2340269 21.6774194 17.8064516 21.6774194zM17.0322581 24.7741935L15.483871 24.7741935 15.483871 23.2258065 17.0322581 23.2258065 17.0322581 24.7741935z"/>
      <circle cx="36.387" cy="24" r="1" fill="#0086F6"/>
      <circle cx="34.065" cy="24" r="1" fill="#0086F6"/>
      <circle cx="31.742" cy="24" r="1" fill="#0086F6"/>
      <path fill="#003A8C" d="M37.5483871,14.7096774 C39.0442152,14.7080241 40.2564112,13.4958281 40.2580645,12 L40.2580645,5.03225806 C40.2564112,3.53642992 39.0442152,2.324234 37.5483871,2.32258065 L24,2.32258065 L24,0.774193548 C24,0.346618258 23.6533817,0 23.2258065,0 L17.0322581,0 C16.6046828,0 16.2580645,0.346618258 16.2580645,0.774193548 L16.2580645,2.32258065 L2.70967742,2.32258065 C1.21384928,2.324234 0.00165335121,3.53642992 1.10134124e-13,5.03225806 L1.10134124e-13,12 C0.00165335121,13.4958281 1.21384928,14.7080241 2.70967742,14.7096774 L3.87096774,14.7096774 L3.87096774,17.8064516 L2.70967742,17.8064516 C1.21384928,17.808105 0.00165335121,19.0203009 1.10134124e-13,20.516129 L1.10134124e-13,27.483871 C0.00165335121,28.9796991 1.21384928,30.191895 2.70967742,30.1935484 L3.87096774,30.1935484 L3.87096774,33.2903226 L2.70967742,33.2903226 C1.21384928,33.2919759 0.00165335121,34.5041719 1.10134124e-13,36 L1.10134124e-13,42.9677419 C0.00165335121,44.4635701 1.21384928,45.675766 2.70967742,45.6774194 L16.2580645,45.6774194 L16.2580645,47.2258065 C16.2580645,47.6533817 16.6046828,48 17.0322581,48 L23.2258065,48 C23.6533817,48 24,47.6533817 24,47.2258065 L24,45.6774194 L37.5483871,45.6774194 C39.0442152,45.675766 40.2564112,44.4635701 40.2580645,42.9677419 L40.2580645,36 C40.2564112,34.5041719 39.0442152,33.2919759 37.5483871,33.2903226 L36.3870968,33.2903226 L36.3870968,30.1935484 L37.5483871,30.1935484 C39.0442152,30.191895 40.2564112,28.9796991 40.2580645,27.483871 L40.2580645,20.516129 C40.2564112,19.0203009 39.0442152,17.808105 37.5483871,17.8064516 L36.3870968,17.8064516 L36.3870968,14.7096774 L37.5483871,14.7096774 Z M17.8064516,1.5483871 L22.4516129,1.5483871 L22.4516129,2.32258065 L17.8064516,2.32258065 L17.8064516,1.5483871 Z M22.4516129,46.4516129 L17.8064516,46.4516129 L17.8064516,45.6774194 L22.4516129,45.6774194 L22.4516129,46.4516129 Z M37.5483871,34.8387097 C38.1895289,34.8392433 38.7091438,35.3588582 38.7096774,36 L38.7096774,42.9677419 C38.7091438,43.6088837 38.1895289,44.1284986 37.5483871,44.1290323 L2.70967742,44.1290323 C2.06853565,44.1284986 1.54892071,43.6088837 1.5483871,42.9677419 L1.5483871,36 C1.54892071,35.3588582 2.06853565,34.8392433 2.70967742,34.8387097 L37.5483871,34.8387097 Z M5.41935484,33.2903226 L5.41935484,30.1935484 L34.8387097,30.1935484 L34.8387097,33.2903226 L5.41935484,33.2903226 Z M37.5483871,19.3548387 C38.1895289,19.3553723 38.7091438,19.8749873 38.7096774,20.516129 L38.7096774,27.483871 C38.7091438,28.1250127 38.1895289,28.6446277 37.5483871,28.6451613 L2.70967742,28.6451613 C2.06853565,28.6446277 1.54892071,28.1250127 1.5483871,27.483871 L1.5483871,20.516129 C1.54892071,19.8749873 2.06853565,19.3553723 2.70967742,19.3548387 L37.5483871,19.3548387 Z M5.41935484,17.8064516 L5.41935484,14.7096774 L34.8387097,14.7096774 L34.8387097,17.8064516 L5.41935484,17.8064516 Z M2.70967742,13.1612903 C2.06853565,13.1607567 1.54892071,12.6411418 1.5483871,12 L1.5483871,5.03225806 C1.54892071,4.39111629 2.06853565,3.87150136 2.70967742,3.87096774 L37.5483871,3.87096774 C38.1895289,3.87150136 38.7091438,4.39111629 38.7096774,5.03225806 L38.7096774,12 C38.7091438,12.6411418 38.1895289,13.1607567 37.5483871,13.1612903 L2.70967742,13.1612903 Z"/>
      <path fill="#003A8C" d="M6.96774194,6.19354839 C7.39531723,6.19354839 7.74193548,6.54016665 7.74193548,6.96774194 L7.74193548,6.96774194 L7.74193548,10.0645161 C7.74193548,10.4920914 7.39531723,10.8387097 6.96774194,10.8387097 L6.96774194,10.8387097 L3.87096774,10.8387097 C3.44339245,10.8387097 3.09677419,10.4920914 3.09677419,10.0645161 L3.09677419,10.0645161 L3.09677419,6.96774194 C3.09677419,6.54016665 3.44339245,6.19354839 3.87096774,6.19354839 L3.87096774,6.19354839 Z M12.3870968,6.19354839 C12.8146721,6.19354839 13.1612903,6.54016665 13.1612903,6.96774194 L13.1612903,6.96774194 L13.1612903,10.0645161 C13.1612903,10.4920914 12.8146721,10.8387097 12.3870968,10.8387097 L12.3870968,10.8387097 L9.29032258,10.8387097 C8.86274729,10.8387097 8.51612903,10.4920914 8.51612903,10.0645161 L8.51612903,10.0645161 L8.51612903,6.96774194 C8.51612903,6.54016665 8.86274729,6.19354839 9.29032258,6.19354839 L9.29032258,6.19354839 Z M17.8064516,6.19354839 C18.2340269,6.19354839 18.5806452,6.54016665 18.5806452,6.96774194 L18.5806452,6.96774194 L18.5806452,10.0645161 C18.5806452,10.4920914 18.2340269,10.8387097 17.8064516,10.8387097 L17.8064516,10.8387097 L14.7096774,10.8387097 C14.2821021,10.8387097 13.9354839,10.4920914 13.9354839,10.0645161 L13.9354839,10.0645161 L13.9354839,6.96774194 C13.9354839,6.54016665 14.2821021,6.19354839 14.7096774,6.19354839 L14.7096774,6.19354839 Z M6.19354839,7.74193548 L4.64516129,7.74193548 L4.64516129,9.29032258 L6.19354839,9.29032258 L6.19354839,7.74193548 Z M11.6129032,7.74193548 L10.0645161,7.74193548 L10.0645161,9.29032258 L11.6129032,9.29032258 L11.6129032,7.74193548 Z M17.0322581,7.74193548 L15.483871,7.74193548 L15.483871,9.29032258 L17.0322581,9.29032258 L17.0322581,7.74193548 Z"/>
      <path fill="#0086F6" d="M36.3870968,7.74193548 C36.8146721,7.74193548 37.1612903,8.08855374 37.1612903,8.51612903 C37.1612903,8.94370432 36.8146721,9.29032258 36.3870968,9.29032258 C35.9595215,9.29032258 35.6129032,8.94370432 35.6129032,8.51612903 C35.6129032,8.08855374 35.9595215,7.74193548 36.3870968,7.74193548 Z M34.0645161,7.74193548 C34.4920914,7.74193548 34.8387097,8.08855374 34.8387097,8.51612903 C34.8387097,8.94370432 34.4920914,9.29032258 34.0645161,9.29032258 C33.6369408,9.29032258 33.2903226,8.94370432 33.2903226,8.51612903 C33.2903226,8.08855374 33.6369408,7.74193548 34.0645161,7.74193548 Z M31.7419355,7.74193548 C32.1695108,7.74193548 32.516129,8.08855374 32.516129,8.51612903 C32.516129,8.94370432 32.1695108,9.29032258 31.7419355,9.29032258 C31.3143602,9.29032258 30.9677419,8.94370432 30.9677419,8.51612903 C30.9677419,8.08855374 31.3143602,7.74193548 31.7419355,7.74193548 Z"/>
      <path fill="#003A8C" d="M6.96774194 37.1612903L3.87096774 37.1612903C3.44339245 37.1612903 3.09677419 37.5079086 3.09677419 37.9354839L3.09677419 41.0322581C3.09677419 41.4598334 3.44339245 41.8064516 3.87096774 41.8064516L6.96774194 41.8064516C7.39531723 41.8064516 7.74193548 41.4598334 7.74193548 41.0322581L7.74193548 37.9354839C7.74193548 37.5079086 7.39531723 37.1612903 6.96774194 37.1612903zM6.19354839 40.2580645L4.64516129 40.2580645 4.64516129 38.7096774 6.19354839 38.7096774 6.19354839 40.2580645zM12.3870968 37.1612903L9.29032258 37.1612903C8.86274729 37.1612903 8.51612903 37.5079086 8.51612903 37.9354839L8.51612903 41.0322581C8.51612903 41.4598334 8.86274729 41.8064516 9.29032258 41.8064516L12.3870968 41.8064516C12.8146721 41.8064516 13.1612903 41.4598334 13.1612903 41.0322581L13.1612903 37.9354839C13.1612903 37.5079086 12.8146721 37.1612903 12.3870968 37.1612903zM11.6129032 40.2580645L10.0645161 40.2580645 10.0645161 38.7096774 11.6129032 38.7096774 11.6129032 40.2580645zM17.8064516 37.1612903L14.7096774 37.1612903C14.2821021 37.1612903 13.9354839 37.5079086 13.9354839 37.9354839L13.9354839 41.0322581C13.9354839 41.4598334 14.2821021 41.8064516 14.7096774 41.8064516L17.8064516 41.8064516C18.2340269 41.8064516 18.5806452 41.4598334 18.5806452 41.0322581L18.5806452 37.9354839C18.5806452 37.5079086 18.2340269 37.1612903 17.8064516 37.1612903zM17.0322581 40.2580645L15.483871 40.2580645 15.483871 38.7096774 17.0322581 38.7096774 17.0322581 40.2580645z"/>
      <circle cx="36.387" cy="39.484" r="1" fill="#0086F6"/>
      <circle cx="34.065" cy="39.484" r="1" fill="#0086F6"/>
      <circle cx="31.742" cy="39.484" r="1" fill="#0086F6"/>
    </g>
  </g>
</svg>
