<svg xmlns="http://www.w3.org/2000/svg" width="64" height="64" viewBox="0 0 64 64">
  <g fill="none" fill-rule="evenodd">
    <rect width="64" height="64" rx="4"/>
    <g transform="translate(8 8)">
      <polygon fill="#1890FF" points="16 19.49 18.919 16.139 31.2 16.139 31.2 28.469 28 32 16 32"/>
      <g fill="#003A8C" fill-rule="nonzero">
        <path d="M47.2,0 L7.2,0 C6.98782644,0 6.78434278,0.0842840503 6.634326,0.234326 L0.234711,6.633942 C0.0842088743,6.78383923 -6.57969943e-07,6.98758532 -6.57969943e-07,7.2 L-6.57969943e-07,47.2 C-6.57969943e-07,47.4121751 0.084277413,47.6156617 0.234307838,47.7656922 C0.384338263,47.9157226 0.587824938,48 0.8,48 L40.8,48 C41.0124171,48 41.2161647,47.9157865 41.366064,47.765283 L47.765674,41.365674 C47.9157159,41.2156572 47.9999993,41.0121736 47.9999993,40.8 L47.9999993,0.8 C47.9999993,0.587824938 47.9157226,0.384338263 47.7656922,0.234307838 C47.6156617,0.084277413 47.4121751,0 47.2,0 L47.2,0 Z M40,40 L36.135059,40 L29.868726,32.062622 L32.062626,29.868722 L40,36.135059 L40,40 Z M41.6,37.398218 L44.895581,40 L41.6,40 L41.6,37.398218 Z M8,8 L11.864935,8 L18.131281,15.937372 L15.937372,18.131281 L8,11.864935 L8,8 Z M6.4,10.601776 L3.104413,8 L6.4,8 L6.4,10.601776 Z M8,6.4 L8,3.104413 L10.601776,6.4 L8,6.4 Z M29.6,19.531348 L31.2,17.931348 L31.2,28.4686 L29.6,30.068624 L29.6,19.531348 Z M31.668652,15.2 L19.5877,15.2 L13.90349,8 L38.868652,8 L31.668652,15.2 Z M16.8,20 L28,20 L28,31.2 L16.8,31.2 L16.8,20 Z M17.931372,18.4 L19.5314,16.8 L30.068652,16.8 L28.468652,18.4 L17.931372,18.4 Z M32.8,28.412305 L32.8,16.331348 L40,9.131348 L40,34.096509 L32.8,28.412305 Z M40.468652,6.4 L12.640326,6.4 L8.850854,1.6 L45.268654,1.6 L40.468652,6.4 Z M6.4,6.4 L2.731348,6.4 L6.4,2.731348 L6.4,6.4 Z M1.6,8.850854 L6.4,12.640326 L6.4,16 L8,16 L8,13.903485 L15.2,19.587695 L15.2,31.668652 L8,38.868652 L8,36.8 L6.4,36.8 L6.4,40.468652 L1.6,45.268652 L1.6,8.850854 Z M7.531348,41.6 L11.2,41.6 L11.2,40 L9.131348,40 L16.331348,32.8 L28.412305,32.8 L34.096505,40 L32,40 L32,41.6 L35.359668,41.6 L39.149146,46.4 L2.731348,46.4 L7.531348,41.6 Z M37.398218,41.6 L40,41.6 L40,44.895581 L37.398218,41.6 Z M41.6,41.6 L45.268652,41.6 L41.6,45.268652 L41.6,41.6 Z M41.6,35.359668 L41.6,7.531348 L46.4,2.731348 L46.4,39.149148 L41.6,35.359668 Z"/>
        <polygon points="12.8 40 14.4 40 14.4 41.6 12.8 41.6"/>
        <polygon points="16 40 17.6 40 17.6 41.6 16 41.6"/>
        <polygon points="19.2 40 20.8 40 20.8 41.6 19.2 41.6"/>
        <polygon points="22.4 40 24 40 24 41.6 22.4 41.6"/>
        <polygon points="25.6 40 27.2 40 27.2 41.6 25.6 41.6"/>
        <polygon points="28.8 40 30.4 40 30.4 41.6 28.8 41.6"/>
        <polygon points="6.4 33.6 8 33.6 8 35.2 6.4 35.2"/>
        <polygon points="6.4 30.4 8 30.4 8 32 6.4 32"/>
        <polygon points="6.4 27.2 8 27.2 8 28.8 6.4 28.8"/>
        <polygon points="6.4 24 8 24 8 25.6 6.4 25.6"/>
        <polygon points="6.4 20.8 8 20.8 8 22.4 6.4 22.4"/>
        <polygon points="6.4 17.6 8 17.6 8 19.2 6.4 19.2"/>
      </g>
    </g>
  </g>
</svg>
