<svg xmlns="http://www.w3.org/2000/svg" width="64" height="64" viewBox="0 0 64 64">
  <g fill="none" fill-rule="evenodd">
    <rect width="64" height="64" rx="4"/>
    <g fill-rule="nonzero" transform="translate(8 8)">
      <polygon fill="#FFF" points="39.562 12.188 47.062 21.563 35.249 21.563 29.624 12.188"/>
      <g fill="#1890FF" transform="translate(12.75 12.188)">
        <polygon points="34.312 9.375 11.25 34.875 22.5 9.375"/>
        <path d="M16.8748125,0 L22.4998125,9.375 C21.8650312,9.375 0.6343125,9.375 -0.0001875,9.375 L5.6248125,0 L16.8748125,0 Z"/>
      </g>
      <path fill="#FFF" d="M35.2491385,21.5625 L23.9991385,47.0625 L12.7491385,21.5625 C13.3839198,21.5625 34.6147323,21.5625 35.2491385,21.5625 Z"/>
      <polygon fill="#1890FF" points="12.749 21.563 23.999 47.063 .937 21.563"/>
      <polygon fill="#FFF" points="18.374 12.188 12.749 21.563 .937 21.563 8.437 12.188"/>
      <path fill="#003A8C" d="M29.6241385,24.375 C29.1066385,24.375 28.6866385,24.795 28.6866385,25.3125 C28.6866385,25.83 29.1066385,26.25 29.6241385,26.25 C30.1416385,26.25 30.5616385,25.83 30.5616385,25.3125 C30.5616385,24.795 30.1416385,24.375 29.6241385,24.375 Z"/>
      <path fill="#003A8C" d="M0.232951007,22.1810625 C0.235482257,22.1839688 0.237732257,22.18725 0.240357257,22.1900625 C0.240732257,22.1904375 0.241013507,22.1909062 0.241388507,22.191375 L23.3038885,47.691375 C23.4757323,47.8814062 23.7361698,48 23.9992323,48 C24.261451,48 24.5214198,47.8827188 24.694576,47.691375 L47.757076,22.191375 C47.757451,22.191 47.7577323,22.1905313 47.7581073,22.1900625 C47.7607323,22.1871563 47.7628885,22.1839688 47.7655135,22.1810625 C48.0659823,21.83925 48.0738573,21.3372187 47.8011385,20.9874375 C47.7985135,20.9840625 47.7965448,20.9802187 47.793826,20.9768438 L40.293826,11.6018438 C40.1159823,11.3794688 39.8465448,11.25 39.5617323,11.25 C35.739826,11.25 11.5465135,11.25 8.43673226,11.25 C8.15191976,11.25 7.88257601,11.3794688 7.70463851,11.6018438 L0.204638507,20.9768438 C0.201919757,20.9802187 0.200044757,20.9839687 0.197326007,20.9874375 C-0.0782052429,21.340875 -0.0641427429,21.8430938 0.232951007,22.1810625 Z M18.904951,13.125 L29.0934198,13.125 L33.5934198,20.625 L14.404951,20.625 L18.904951,13.125 Z M14.187451,22.5 L33.810826,22.5 L23.9991385,44.7399375 L14.187451,22.5 Z M35.8602948,22.5 L44.949826,22.5 L27.2036073,42.1216875 L35.8602948,22.5 Z M12.138076,22.5 L20.7946698,42.1216875 L3.04854476,22.5 L12.138076,22.5 Z M45.111076,20.625 L35.779951,20.625 L31.279951,13.125 L39.111076,13.125 L45.111076,20.625 Z M8.88720101,13.125 L16.718326,13.125 L12.218326,20.625 L2.88720101,20.625 L8.88720101,13.125 Z"/>
      <path fill="#003A8C" d="M25.8741385 24.375L18.9160135 24.375C18.3982323 24.375 17.9785135 24.7947187 17.9785135 25.3125 17.9785135 25.8302813 18.3982323 26.25 18.9160135 26.25L25.8741385 26.25C26.3919198 26.25 26.8116385 25.8302813 26.8116385 25.3125 26.8116385 24.7947187 26.3919198 24.375 25.8741385 24.375zM23.9991385 7.5C24.5169198 7.5 24.9366385 7.08028125 24.9366385 6.5625L24.9366385.9375C24.9366385.41971875 24.5169198 0 23.9991385 0 23.4813573 0 23.0616385.41971875 23.0616385.9375L23.0616385 6.5625C23.0616385 7.08028125 23.4813573 7.5 23.9991385 7.5zM30.2871385 7.22540625L34.0371385 3.47540625C34.4032323 3.1093125 34.4032323 2.5156875 34.0371385 2.1495 33.6710448 1.7833125 33.0774198 1.78340625 32.7112323 2.1495L28.9612323 5.8995C28.5951385 6.26559375 28.5951385 6.85921875 28.9612323 7.22540625 29.327326 7.5915 29.920951 7.59159375 30.2871385 7.22540625zM17.7112323 7.22540625C18.077326 7.5915 18.670951 7.5915 19.0371385 7.22540625 19.4032323 6.8593125 19.4032323 6.2656875 19.0371385 5.8995L15.2871385 2.1495C14.9210448 1.78340625 14.3274198 1.78340625 13.9612323 2.1495 13.5950448 2.51559375 13.5951385 3.10921875 13.9612323 3.47540625L17.7112323 7.22540625z"/>
    </g>
  </g>
</svg>
