<svg xmlns="http://www.w3.org/2000/svg" width="64" height="64" viewBox="0 0 64 64">
  <g fill="none" fill-rule="evenodd">
    <rect width="64" height="64" rx="4"/>
    <path fill="#1890FF" fill-rule="nonzero" d="M34.3225806 16.016129L55.2258065 16.016129 55.2258065 9.82258065 34.3225806 9.82258065 34.3225806 16.016129zM52.1290323 12.1451613C52.5565776 12.1451613 52.9032258 12.4918095 52.9032258 12.9193548 52.9032258 13.3469002 52.5565776 13.6935484 52.1290323 13.6935484 51.7014869 13.6935484 51.3548387 13.3469002 51.3548387 12.9193548 51.3548387 12.4918095 51.7014869 12.1451613 52.1290323 12.1451613zM49.0322581 12.1451613C49.4598035 12.1451613 49.8064516 12.4918095 49.8064516 12.9193548 49.8064516 13.3469002 49.4598035 13.6935484 49.0322581 13.6935484 48.6047127 13.6935484 48.2580645 13.3469002 48.2580645 12.9193548 48.2580645 12.4918095 48.6047127 12.1451613 49.0322581 12.1451613zM45.9354839 12.1451613C46.3630293 12.1451613 46.7096774 12.4918095 46.7096774 12.9193548 46.7096774 13.3469002 46.3630293 13.6935484 45.9354839 13.6935484 45.5079385 13.6935484 45.1612903 13.3469002 45.1612903 12.9193548 45.1612903 12.4918095 45.5079385 12.1451613 45.9354839 12.1451613zM34.3225806 28.4032258L55.2258065 28.4032258 55.2258065 22.2096774 34.3225806 22.2096774 34.3225806 28.4032258zM52.1290323 24.5322581C52.5565776 24.5322581 52.9032258 24.8789062 52.9032258 25.3064516 52.9032258 25.733997 52.5565776 26.0806452 52.1290323 26.0806452 51.7014869 26.0806452 51.3548387 25.733997 51.3548387 25.3064516 51.3548387 24.8789062 51.7014869 24.5322581 52.1290323 24.5322581zM49.0322581 24.5322581C49.4598035 24.5322581 49.8064516 24.8789062 49.8064516 25.3064516 49.8064516 25.733997 49.4598035 26.0806452 49.0322581 26.0806452 48.6047127 26.0806452 48.2580645 25.733997 48.2580645 25.3064516 48.2580645 24.8789062 48.6047127 24.5322581 49.0322581 24.5322581zM45.9354839 24.5322581C46.3630293 24.5322581 46.7096774 24.8789062 46.7096774 25.3064516 46.7096774 25.733997 46.3630293 26.0806452 45.9354839 26.0806452 45.5079385 26.0806452 45.1612903 25.733997 45.1612903 25.3064516 45.1612903 24.8789062 45.5079385 24.5322581 45.9354839 24.5322581z"/>
    <path fill="#003A8C" fill-rule="nonzero" d="M46.7096774 12.9193548C46.7096774 13.3469002 46.3630293 13.6935484 45.9354839 13.6935484 45.5079385 13.6935484 45.1612903 13.3469002 45.1612903 12.9193548 45.1612903 12.4918095 45.5079385 12.1451613 45.9354839 12.1451613 46.3630293 12.1451613 46.7096774 12.4918095 46.7096774 12.9193548zM49.8064516 12.9193548C49.8064516 13.3469002 49.4598035 13.6935484 49.0322581 13.6935484 48.6047127 13.6935484 48.2580645 13.3469002 48.2580645 12.9193548 48.2580645 12.4918095 48.6047127 12.1451613 49.0322581 12.1451613 49.4598035 12.1451613 49.8064516 12.4918095 49.8064516 12.9193548zM52.9032258 12.9193548C52.9032258 13.3469002 52.5565776 13.6935484 52.1290323 13.6935484 51.7014869 13.6935484 51.3548387 13.3469002 51.3548387 12.9193548 51.3548387 12.4918095 51.7014869 12.1451613 52.1290323 12.1451613 52.5565776 12.1451613 52.9032258 12.4918095 52.9032258 12.9193548zM46.7096774 19.1129032C46.7096774 19.5404486 46.3630293 19.8870968 45.9354839 19.8870968 45.5079385 19.8870968 45.1612903 19.5404486 45.1612903 19.1129032 45.1612903 18.6853578 45.5079385 18.3387097 45.9354839 18.3387097 46.3630293 18.3387097 46.7096774 18.6853578 46.7096774 19.1129032zM49.8064516 19.1129032C49.8064516 19.5404486 49.4598035 19.8870968 49.0322581 19.8870968 48.6047127 19.8870968 48.2580645 19.5404486 48.2580645 19.1129032 48.2580645 18.6853578 48.6047127 18.3387097 49.0322581 18.3387097 49.4598035 18.3387097 49.8064516 18.6853578 49.8064516 19.1129032zM52.9032258 19.1129032C52.9032258 19.5404486 52.5565776 19.8870968 52.1290323 19.8870968 51.7014869 19.8870968 51.3548387 19.5404486 51.3548387 19.1129032 51.3548387 18.6853578 51.7014869 18.3387097 52.1290323 18.3387097 52.5565776 18.3387097 52.9032258 18.6853578 52.9032258 19.1129032zM46.7096774 25.3064516C46.7096774 25.733997 46.3630293 26.0806452 45.9354839 26.0806452 45.5079385 26.0806452 45.1612903 25.733997 45.1612903 25.3064516 45.1612903 24.8789062 45.5079385 24.5322581 45.9354839 24.5322581 46.3630293 24.5322581 46.7096774 24.8789062 46.7096774 25.3064516zM49.8064516 25.3064516C49.8064516 25.733997 49.4598035 26.0806452 49.0322581 26.0806452 48.6047127 26.0806452 48.2580645 25.733997 48.2580645 25.3064516 48.2580645 24.8789062 48.6047127 24.5322581 49.0322581 24.5322581 49.4598035 24.5322581 49.8064516 24.8789062 49.8064516 25.3064516zM52.9032258 25.3064516C52.9032258 25.733997 52.5565776 26.0806452 52.1290323 26.0806452 51.7014869 26.0806452 51.3548387 25.733997 51.3548387 25.3064516 51.3548387 24.8789062 51.7014869 24.5322581 52.1290323 24.5322581 52.5565776 24.5322581 52.9032258 24.8789062 52.9032258 25.3064516z"/>
    <path fill="#1890FF" fill-rule="nonzero" d="M29.6774194 46.983871L8.77419355 46.983871 8.77419355 53.1774194 29.6774194 53.1774194 29.6774194 46.983871zM20.3870968 50.8548387C19.9595514 50.8548387 19.6129032 50.5081905 19.6129032 50.0806452 19.6129032 49.6530998 19.9595514 49.3064516 20.3870968 49.3064516 20.8146422 49.3064516 21.1612903 49.6530998 21.1612903 50.0806452 21.1612903 50.5081905 20.8146422 50.8548387 20.3870968 50.8548387zM23.483871 50.8548387C23.0563256 50.8548387 22.7096774 50.5081905 22.7096774 50.0806452 22.7096774 49.6530998 23.0563256 49.3064516 23.483871 49.3064516 23.9114164 49.3064516 24.2580645 49.6530998 24.2580645 50.0806452 24.2580645 50.5081905 23.9114164 50.8548387 23.483871 50.8548387zM26.5806452 50.8548387C26.1530998 50.8548387 25.8064516 50.5081905 25.8064516 50.0806452 25.8064516 49.6530998 26.1530998 49.3064516 26.5806452 49.3064516 27.0081905 49.3064516 27.3548387 49.6530998 27.3548387 50.0806452 27.3548387 50.5081905 27.0081905 50.8548387 26.5806452 50.8548387zM29.6774194 34.5967742L8.77419355 34.5967742 8.77419355 40.7903226 29.6774194 40.7903226 29.6774194 34.5967742zM20.3870968 38.4677419C19.9595514 38.4677419 19.6129032 38.1210938 19.6129032 37.6935484 19.6129032 37.266003 19.9595514 36.9193548 20.3870968 36.9193548 20.8146422 36.9193548 21.1612903 37.266003 21.1612903 37.6935484 21.1612903 38.1210938 20.8146422 38.4677419 20.3870968 38.4677419zM23.483871 38.4677419C23.0563256 38.4677419 22.7096774 38.1210938 22.7096774 37.6935484 22.7096774 37.266003 23.0563256 36.9193548 23.483871 36.9193548 23.9114164 36.9193548 24.2580645 37.266003 24.2580645 37.6935484 24.2580645 38.1210938 23.9114164 38.4677419 23.483871 38.4677419zM26.5806452 38.4677419C26.1530998 38.4677419 25.8064516 38.1210938 25.8064516 37.6935484 25.8064516 37.266003 26.1530998 36.9193548 26.5806452 36.9193548 27.0081905 36.9193548 27.3548387 37.266003 27.3548387 37.6935484 27.3548387 38.1210938 27.0081905 38.4677419 26.5806452 38.4677419z"/>
    <path fill="#1890FF" fill-rule="nonzero" d="M21.1612903 37.6935484C21.1612903 38.1210938 20.8146422 38.4677419 20.3870968 38.4677419 19.9595514 38.4677419 19.6129032 38.1210938 19.6129032 37.6935484 19.6129032 37.266003 19.9595514 36.9193548 20.3870968 36.9193548 20.8146422 36.9193548 21.1612903 37.266003 21.1612903 37.6935484zM24.2580645 37.6935484C24.2580645 38.1210938 23.9114164 38.4677419 23.483871 38.4677419 23.0563256 38.4677419 22.7096774 38.1210938 22.7096774 37.6935484 22.7096774 37.266003 23.0563256 36.9193548 23.483871 36.9193548 23.9114164 36.9193548 24.2580645 37.266003 24.2580645 37.6935484zM27.3548387 37.6935484C27.3548387 38.1210938 27.0081905 38.4677419 26.5806452 38.4677419 26.1530998 38.4677419 25.8064516 38.1210938 25.8064516 37.6935484 25.8064516 37.266003 26.1530998 36.9193548 26.5806452 36.9193548 27.0081905 36.9193548 27.3548387 37.266003 27.3548387 37.6935484zM24.2580645 43.8870968C24.2580645 44.3146422 23.9114164 44.6612903 23.483871 44.6612903 23.0563256 44.6612903 22.7096774 44.3146422 22.7096774 43.8870968 22.7096774 43.4595514 23.0563256 43.1129032 23.483871 43.1129032 23.9114164 43.1129032 24.2580645 43.4595514 24.2580645 43.8870968zM27.3548387 43.8870968C27.3548387 44.3146422 27.0081905 44.6612903 26.5806452 44.6612903 26.1530998 44.6612903 25.8064516 44.3146422 25.8064516 43.8870968 25.8064516 43.4595514 26.1530998 43.1129032 26.5806452 43.1129032 27.0081905 43.1129032 27.3548387 43.4595514 27.3548387 43.8870968zM21.1612903 50.0806452C21.1612903 50.5081905 20.8146422 50.8548387 20.3870968 50.8548387 19.9595514 50.8548387 19.6129032 50.5081905 19.6129032 50.0806452 19.6129032 49.6530998 19.9595514 49.3064516 20.3870968 49.3064516 20.8146422 49.3064516 21.1612903 49.6530998 21.1612903 50.0806452zM24.2580645 50.0806452C24.2580645 50.5081905 23.9114164 50.8548387 23.483871 50.8548387 23.0563256 50.8548387 22.7096774 50.5081905 22.7096774 50.0806452 22.7096774 49.6530998 23.0563256 49.3064516 23.483871 49.3064516 23.9114164 49.3064516 24.2580645 49.6530998 24.2580645 50.0806452zM27.3548387 50.0806452C27.3548387 50.5081905 27.0081905 50.8548387 26.5806452 50.8548387 26.1530998 50.8548387 25.8064516 50.5081905 25.8064516 50.0806452 25.8064516 49.6530998 26.1530998 49.3064516 26.5806452 49.3064516 27.0081905 49.3064516 27.3548387 49.6530998 27.3548387 50.0806452z"/>
    <path fill="#003A8C" fill-rule="nonzero" d="M31.7353831 18.5299899L25.5418347 13.110635C25.3131301 12.9106603 24.9887853 12.8630293 24.7120715 12.9885333 24.4357359 13.1144153 24.2580645 13.3899949 24.2580645 13.6935484L24.2580645 16.0323841C17.0650202 16.3404737 13.4193548 21.0196573 13.4193548 29.9516129 13.4193548 30.3791583 13.766003 30.7258065 14.1935484 30.7258065L18.8387097 30.7258065C19.2662551 30.7258065 19.6129032 30.3791583 19.6129032 29.9516129 19.6129032 26.8136341 20.1137853 22.6995968 24.2580645 22.2497479L24.2580645 24.5322581C24.2580645 24.8358115 24.4357359 25.1113911 24.7120715 25.2372732 24.9887853 25.3627772 25.3131301 25.3151462 25.5418347 25.1151714L31.7353831 19.6958166C31.9036038 19.5487651 32 19.3363155 32 19.1129032 32 18.8894909 31.9036038 18.6770414 31.7353831 18.5299899zM25.8064516 22.8288811L25.8064516 21.4354839C25.8064516 21.0079385 25.4598035 20.6612903 25.0322581 20.6612903 20.6063508 20.6612903 18.2697833 23.5259576 18.077747 29.1774194L14.9753024 29.1774194C15.0853075 23.9731603 16.4424143 17.5645161 25.0322581 17.5645161 25.4598035 17.5645161 25.8064516 17.217868 25.8064516 16.7903226L25.8064516 15.3969254 30.0497732 19.1129032 25.8064516 22.8288811zM49.8064516 32.2741935L45.1612903 32.2741935C44.7337449 32.2741935 44.3870968 32.6208417 44.3870968 33.0483871 44.3870968 36.1863659 43.8862147 40.3004032 39.7419355 40.7502521L39.7419355 38.4677419C39.7419355 38.1641885 39.5642641 37.8886089 39.2879285 37.7627268 39.0112147 37.6372228 38.6868699 37.6848538 38.4581653 37.8848286L32.2646169 43.3041834C32.0963962 43.4512349 32 43.6636845 32 43.8870968 32 44.1105091 32.0963962 44.3229586 32.2646169 44.4700101L38.4581653 49.889365C38.5995463 50.0126008 38.7802419 50.0806496 38.9677419 50.0806496 39.078125 50.0810232 39.187374 50.0572076 39.2875505 50.0110887 39.5638861 49.8855847 39.7415575 49.6100051 39.7419355 49.3064516L39.7419355 46.9676159C46.9349798 46.6580141 50.5806452 41.9803427 50.5806452 33.0483871 50.5806452 32.6208417 50.233997 32.2741935 49.8064516 32.2741935zM38.9677419 45.4354839C38.5401965 45.4354839 38.1935484 45.782132 38.1935484 46.2096774L38.1935484 47.6030746 33.9502268 43.8870968 38.1935484 40.1711189 38.1935484 41.5645161C38.1935484 41.9920615 38.5401965 42.3387097 38.9677419 42.3387097 43.3936492 42.3387097 45.7302167 39.4740424 45.922253 33.8225806L49.0246976 33.8225806C48.9146925 39.0268397 47.5613659 45.4354839 38.9677419 45.4354839zM37.4193548 13.6935484L40.516129 13.6935484C40.9436744 13.6935484 41.2903226 13.3469002 41.2903226 12.9193548 41.2903226 12.4918095 40.9436744 12.1451613 40.516129 12.1451613L37.4193548 12.1451613C36.9918095 12.1451613 36.6451613 12.4918095 36.6451613 12.9193548 36.6451613 13.3469002 36.9918095 13.6935484 37.4193548 13.6935484z"/>
    <path fill="#003A8C" fill-rule="nonzero" d="M55.2258065,9.0483871 L34.3225806,9.0483871 C33.8950353,9.0483871 33.5483871,9.39503526 33.5483871,9.82258065 L33.5483871,28.4032258 C33.5483871,28.8307712 33.8950353,29.1774194 34.3225806,29.1774194 L55.2258065,29.1774194 C55.6533518,29.1774194 56,28.8307712 56,28.4032258 L56,9.82258065 C56,9.39503526 55.6533518,9.0483871 55.2258065,9.0483871 Z M35.0967742,16.7903226 L54.4516129,16.7903226 L54.4516129,21.4354839 L35.0967742,21.4354839 L35.0967742,16.7903226 Z M54.4516129,10.5967742 L54.4516129,15.2419355 L35.0967742,15.2419355 L35.0967742,10.5967742 L54.4516129,10.5967742 Z M35.0967742,27.6290323 L35.0967742,22.983871 L54.4516129,22.983871 L54.4516129,27.6290323 L35.0967742,27.6290323 Z"/>
    <path fill="#003A8C" fill-rule="nonzero" d="M46.7096774 12.9193548C46.7096774 13.3469002 46.3630293 13.6935484 45.9354839 13.6935484 45.5079385 13.6935484 45.1612903 13.3469002 45.1612903 12.9193548 45.1612903 12.4918095 45.5079385 12.1451613 45.9354839 12.1451613 46.3630293 12.1451613 46.7096774 12.4918095 46.7096774 12.9193548zM49.8064516 12.9193548C49.8064516 13.3469002 49.4598035 13.6935484 49.0322581 13.6935484 48.6047127 13.6935484 48.2580645 13.3469002 48.2580645 12.9193548 48.2580645 12.4918095 48.6047127 12.1451613 49.0322581 12.1451613 49.4598035 12.1451613 49.8064516 12.4918095 49.8064516 12.9193548zM52.9032258 12.9193548C52.9032258 13.3469002 52.5565776 13.6935484 52.1290323 13.6935484 51.7014869 13.6935484 51.3548387 13.3469002 51.3548387 12.9193548 51.3548387 12.4918095 51.7014869 12.1451613 52.1290323 12.1451613 52.5565776 12.1451613 52.9032258 12.4918095 52.9032258 12.9193548zM40.516129 18.3387097L37.4193548 18.3387097C36.9918095 18.3387097 36.6451613 18.6853578 36.6451613 19.1129032 36.6451613 19.5404486 36.9918095 19.8870968 37.4193548 19.8870968L40.516129 19.8870968C40.9436744 19.8870968 41.2903226 19.5404486 41.2903226 19.1129032 41.2903226 18.6853578 40.9436744 18.3387097 40.516129 18.3387097zM46.7096774 19.1129032C46.7096774 19.5404486 46.3630293 19.8870968 45.9354839 19.8870968 45.5079385 19.8870968 45.1612903 19.5404486 45.1612903 19.1129032 45.1612903 18.6853578 45.5079385 18.3387097 45.9354839 18.3387097 46.3630293 18.3387097 46.7096774 18.6853578 46.7096774 19.1129032zM49.8064516 19.1129032C49.8064516 19.5404486 49.4598035 19.8870968 49.0322581 19.8870968 48.6047127 19.8870968 48.2580645 19.5404486 48.2580645 19.1129032 48.2580645 18.6853578 48.6047127 18.3387097 49.0322581 18.3387097 49.4598035 18.3387097 49.8064516 18.6853578 49.8064516 19.1129032zM52.9032258 19.1129032C52.9032258 19.5404486 52.5565776 19.8870968 52.1290323 19.8870968 51.7014869 19.8870968 51.3548387 19.5404486 51.3548387 19.1129032 51.3548387 18.6853578 51.7014869 18.3387097 52.1290323 18.3387097 52.5565776 18.3387097 52.9032258 18.6853578 52.9032258 19.1129032zM40.516129 24.5322581L37.4193548 24.5322581C36.9918095 24.5322581 36.6451613 24.8789062 36.6451613 25.3064516 36.6451613 25.733997 36.9918095 26.0806452 37.4193548 26.0806452L40.516129 26.0806452C40.9436744 26.0806452 41.2903226 25.733997 41.2903226 25.3064516 41.2903226 24.8789062 40.9436744 24.5322581 40.516129 24.5322581zM46.7096774 25.3064516C46.7096774 25.733997 46.3630293 26.0806452 45.9354839 26.0806452 45.5079385 26.0806452 45.1612903 25.733997 45.1612903 25.3064516 45.1612903 24.8789062 45.5079385 24.5322581 45.9354839 24.5322581 46.3630293 24.5322581 46.7096774 24.8789062 46.7096774 25.3064516zM49.8064516 25.3064516C49.8064516 25.733997 49.4598035 26.0806452 49.0322581 26.0806452 48.6047127 26.0806452 48.2580645 25.733997 48.2580645 25.3064516 48.2580645 24.8789062 48.6047127 24.5322581 49.0322581 24.5322581 49.4598035 24.5322581 49.8064516 24.8789062 49.8064516 25.3064516zM52.9032258 25.3064516C52.9032258 25.733997 52.5565776 26.0806452 52.1290323 26.0806452 51.7014869 26.0806452 51.3548387 25.733997 51.3548387 25.3064516 51.3548387 24.8789062 51.7014869 24.5322581 52.1290323 24.5322581 52.5565776 24.5322581 52.9032258 24.8789062 52.9032258 25.3064516zM11.8709677 38.4677419L14.9677419 38.4677419C15.3952873 38.4677419 15.7419355 38.1210938 15.7419355 37.6935484 15.7419355 37.266003 15.3952873 36.9193548 14.9677419 36.9193548L11.8709677 36.9193548C11.4434224 36.9193548 11.0967742 37.266003 11.0967742 37.6935484 11.0967742 38.1210938 11.4434224 38.4677419 11.8709677 38.4677419z"/>
    <path fill="#003A8C" fill-rule="nonzero" d="M29.6774194,33.8225806 L8.77419355,33.8225806 C8.34664816,33.8225806 8,34.1692288 8,34.5967742 L8,53.1774194 C8,53.6049647 8.34664816,53.9516129 8.77419355,53.9516129 L29.6774194,53.9516129 C30.1049647,53.9516129 30.4516129,53.6049647 30.4516129,53.1774194 L30.4516129,34.5967742 C30.4516129,34.1692288 30.1049647,33.8225806 29.6774194,33.8225806 Z M9.5483871,41.5645161 L28.9032258,41.5645161 L28.9032258,46.2096774 L9.5483871,46.2096774 L9.5483871,41.5645161 Z M28.9032258,35.3709677 L28.9032258,40.016129 L9.5483871,40.016129 L9.5483871,35.3709677 L28.9032258,35.3709677 Z M9.5483871,52.4032258 L9.5483871,47.7580645 L28.9032258,47.7580645 L28.9032258,52.4032258 L9.5483871,52.4032258 Z"/>
    <path fill="#003A8C" fill-rule="nonzero" d="M21.1612903 37.6935484C21.1612903 38.1210938 20.8146422 38.4677419 20.3870968 38.4677419 19.9595514 38.4677419 19.6129032 38.1210938 19.6129032 37.6935484 19.6129032 37.266003 19.9595514 36.9193548 20.3870968 36.9193548 20.8146422 36.9193548 21.1612903 37.266003 21.1612903 37.6935484zM24.2580645 37.6935484C24.2580645 38.1210938 23.9114164 38.4677419 23.483871 38.4677419 23.0563256 38.4677419 22.7096774 38.1210938 22.7096774 37.6935484 22.7096774 37.266003 23.0563256 36.9193548 23.483871 36.9193548 23.9114164 36.9193548 24.2580645 37.266003 24.2580645 37.6935484zM27.3548387 37.6935484C27.3548387 38.1210938 27.0081905 38.4677419 26.5806452 38.4677419 26.1530998 38.4677419 25.8064516 38.1210938 25.8064516 37.6935484 25.8064516 37.266003 26.1530998 36.9193548 26.5806452 36.9193548 27.0081905 36.9193548 27.3548387 37.266003 27.3548387 37.6935484zM14.9677419 43.1129032L11.8709677 43.1129032C11.4434224 43.1129032 11.0967742 43.4595514 11.0967742 43.8870968 11.0967742 44.3146422 11.4434224 44.6612903 11.8709677 44.6612903L14.9677419 44.6612903C15.3952873 44.6612903 15.7419355 44.3146422 15.7419355 43.8870968 15.7419355 43.4595514 15.3952873 43.1129032 14.9677419 43.1129032zM21.1612903 43.8870968C21.1612903 44.3146422 20.8146422 44.6612903 20.3870968 44.6612903 19.9595514 44.6612903 19.6129032 44.3146422 19.6129032 43.8870968 19.6129032 43.4595514 19.9595514 43.1129032 20.3870968 43.1129032 20.8146422 43.1129032 21.1612903 43.4595514 21.1612903 43.8870968zM24.2580645 43.8870968C24.2580645 44.3146422 23.9114164 44.6612903 23.483871 44.6612903 23.0563256 44.6612903 22.7096774 44.3146422 22.7096774 43.8870968 22.7096774 43.4595514 23.0563256 43.1129032 23.483871 43.1129032 23.9114164 43.1129032 24.2580645 43.4595514 24.2580645 43.8870968zM27.3548387 43.8870968C27.3548387 44.3146422 27.0081905 44.6612903 26.5806452 44.6612903 26.1530998 44.6612903 25.8064516 44.3146422 25.8064516 43.8870968 25.8064516 43.4595514 26.1530998 43.1129032 26.5806452 43.1129032 27.0081905 43.1129032 27.3548387 43.4595514 27.3548387 43.8870968zM14.9677419 49.3064516L11.8709677 49.3064516C11.4434224 49.3064516 11.0967742 49.6530998 11.0967742 50.0806452 11.0967742 50.5081905 11.4434224 50.8548387 11.8709677 50.8548387L14.9677419 50.8548387C15.3952873 50.8548387 15.7419355 50.5081905 15.7419355 50.0806452 15.7419355 49.6530998 15.3952873 49.3064516 14.9677419 49.3064516zM21.1612903 50.0806452C21.1612903 50.5081905 20.8146422 50.8548387 20.3870968 50.8548387 19.9595514 50.8548387 19.6129032 50.5081905 19.6129032 50.0806452 19.6129032 49.6530998 19.9595514 49.3064516 20.3870968 49.3064516 20.8146422 49.3064516 21.1612903 49.6530998 21.1612903 50.0806452zM24.2580645 50.0806452C24.2580645 50.5081905 23.9114164 50.8548387 23.483871 50.8548387 23.0563256 50.8548387 22.7096774 50.5081905 22.7096774 50.0806452 22.7096774 49.6530998 23.0563256 49.3064516 23.483871 49.3064516 23.9114164 49.3064516 24.2580645 49.6530998 24.2580645 50.0806452zM27.3548387 50.0806452C27.3548387 50.5081905 27.0081905 50.8548387 26.5806452 50.8548387 26.1530998 50.8548387 25.8064516 50.5081905 25.8064516 50.0806452 25.8064516 49.6530998 26.1530998 49.3064516 26.5806452 49.3064516 27.0081905 49.3064516 27.3548387 49.6530998 27.3548387 50.0806452z"/>
  </g>
</svg>
