<svg xmlns="http://www.w3.org/2000/svg" width="64" height="64" viewBox="0 0 64 64">
  <g fill="none" fill-rule="evenodd">
    <rect width="64" height="64" rx="4"/>
    <g fill-rule="nonzero" transform="translate(8 8)">
      <polygon fill="#0086F6" points="39.976 47.2 35.2 47.2 33.6 45.6 33.624 2.4 35.2 2.684 47.2 4.8"/>
      <path fill="#003A8C" d="M39.9762 48L37.6 48 37.6 46.4 39.301 46.4 45.1847 11.8656 46.762 12.1344 40.7648 47.3344C40.6992874 47.7188134 40.3661558 48 39.9762 48zM47.0345 10.5344L45.4573 10.2656 46.2778 5.45 37.4611 3.8951 37.7389 2.3194 47.3389 4.0122C47.7723489 4.08847395 48.0627864 4.50053772 47.9889 4.9344L47.0345 10.5344z"/>
      <polygon points=".8 .8 35.2 .8 35.2 47.2 .8 47.2"/>
      <rect width="8" height="8" x="4.8" y="24" fill="#FCFEFF" rx="2"/>
      <rect width="8" height="8" x="4.8" y="36" fill="#FCFEFF" rx="2"/>
      <path fill="#003A8C" d="M35.2,48 L0.8,48 C0.3581722,48 0,47.6418278 0,47.2 L0,35.2 L1.6,35.2 L1.6,46.4 L34.4,46.4 L34.4,1.6 L1.6,1.6 L1.6,33.6 L0,33.6 L0,0.8 C0,0.3581722 0.3581722,0 0.8,0 L35.2,0 C35.6418278,0 36,0.3581722 36,0.8 L36,47.2 C36,47.6418278 35.6418278,48 35.2,48 Z"/>
      <path fill="#0086F6" d="M10.4,35.2 L10.4,36.8 L6.8,36.8 C6.1375553,36.8007165 5.60071648,37.3375553 5.6,38 L5.6,42 C5.60071648,42.6624447 6.1375553,43.1992835 6.8,43.2 L10.8,43.2 C11.4624447,43.1992835 11.9992835,42.6624447 12,42 L12,41.6 L13.6,41.6 L13.6,42 C13.5982365,43.5456663 12.3456663,44.7982365 10.8,44.8 L6.8,44.8 C5.25433374,44.7982365 4.00176345,43.5456663 4,42 L4,38 C4.00176345,36.4543337 5.25433374,35.2017635 6.8,35.2 L10.4,35.2 Z M13.7926,35.4793 L15.0074,36.5207 L10.2074,42.1207 C10.0623678,42.2898591 9.85335747,42.3908669 9.6307,42.3994 L9.615275,42.399925 L9.6,42.4 C9.38782385,42.4 9.18433506,42.3157273 9.0343,42.1657 L6.6343,39.7657 L7.7657,38.6343 L9.5548,40.4234 L13.7926,35.4793 Z M20.8,39.2 L20.8,40.8 L16.8,40.8 L16.8,39.2 L20.8,39.2 Z M28.8,39.2 L28.8,40.8 L22.4,40.8 L22.4,39.2 L28.8,39.2 Z M28.8,35.2 L28.8,36.8 L16.8,36.8 L16.8,35.2 L28.8,35.2 Z M10.4,23.2 L10.4,24.8 L6.8,24.8 C6.1375553,24.8007165 5.60071648,25.3375553 5.6,26 L5.6,30 C5.60071648,30.6624447 6.1375553,31.1992835 6.8,31.2 L10.8,31.2 C11.4624447,31.1992835 11.9992835,30.6624447 12,30 L12,29.6 L13.6,29.6 L13.6,30 C13.5982365,31.5456663 12.3456663,32.7982365 10.8,32.8 L6.8,32.8 C5.25433374,32.7982365 4.00176345,31.5456663 4,30 L4,26 C4.00176345,24.4543337 5.25433374,23.2017635 6.8,23.2 L10.4,23.2 Z M13.7926,23.4793 L15.0074,24.5207 L10.2074,30.1207 C10.0623678,30.2898591 9.85335747,30.3908669 9.6307,30.3994 L9.615275,30.399925 L9.6,30.4 C9.38782385,30.4 9.18433506,30.3157273 9.0343,30.1657 L6.6343,27.7657 L7.7657,26.6343 L9.5548,28.4234 L13.7926,23.4793 Z M20.8,27.2 L20.8,28.8 L16.8,28.8 L16.8,27.2 L20.8,27.2 Z M28.8,27.2 L28.8,28.8 L22.4,28.8 L22.4,27.2 L28.8,27.2 Z M28.8,23.2 L28.8,24.8 L16.8,24.8 L16.8,23.2 L28.8,23.2 Z"/>
      <path fill="#FCFEFF" d="M16.6524,18.7218 C14.1071451,16.8677183 12.3701148,14.1078906 11.7993,11.0111 L11.2,7.2061 L18.39,4 L25.58,7.2061 L24.9745,11.0425 C24.3990179,14.1657833 22.6371809,16.9451811 20.0581,18.7984 L18.3965,20.0063 L16.6524,18.7218 Z"/>
      <path fill="#0086F6" d="M18.3965,20.8063007 C18.2257763,20.8063007 18.0595086,20.7518186 17.9221,20.6505 L16.178,19.366 C13.4682467,17.3910981 11.6193308,14.4519528 11.0123,11.1543 C11.0111,11.1481 11.0101,11.1418 11.0091,11.1356 L10.41,7.3305 C10.3537324,6.97326423 10.5441198,6.62270379 10.8744,6.4754 L18.0644,3.2693 C18.2717597,3.17683784 18.5086403,3.17683784 18.716,3.2693 L25.906,6.4754 C26.2364411,6.62270093 26.4268982,6.97343722 26.3705,7.3308 L25.7649,11.1672 C25.764,11.1734 25.7629,11.1796 25.7618,11.1858 C25.1498266,14.5117158 23.2744973,17.4717624 20.5287,19.4458 L18.8671,20.6537 C18.7303408,20.7530978 18.5655649,20.8065291 18.3965,20.8063007 L18.3965,20.8063007 Z"/>
      <path fill="#FFF" d="M17.581,14.4061006 C17.3687547,14.4063569 17.1651624,14.3219976 17.0153,14.1717 L14.6153,11.7717 L15.7466,10.64 L17.581,12.4743 L21.8153,8.24 L22.9466,9.3713 L18.1466,14.1713 C17.9968278,14.3217198 17.7932682,14.4062243 17.581,14.4061006 L17.581,14.4061006 Z"/>
      <path fill="#003A8C" d="M7.2,6.4 L7.2,8 L4,8 L4,6.4 L7.2,6.4 Z M8.8,3.2 L8.8,4.8 L4,4.8 L4,3.2 L8.8,3.2 Z M29.6,3.2 L29.6,4.8 L28,4.8 L28,3.2 L29.6,3.2 Z M32.8,3.2 L32.8,4.8 L31.2,4.8 L31.2,3.2 L32.8,3.2 Z"/>
    </g>
  </g>
</svg>
