<svg xmlns="http://www.w3.org/2000/svg" width="64" height="64" viewBox="0 0 64 64">
  <g fill="none" fill-rule="evenodd">
    <rect width="64" height="64" rx="4"/>
    <g fill-rule="nonzero" transform="translate(8 8)">
      <g fill="#1890FF" transform="translate(5.42 3.097)">
        <circle cx="6.194" cy="6.194" r="6.194"/>
        <path d="M10.0645161,27.8709677 L2.32258065,27.8709677 C1.04206452,27.8709677 0,26.8289032 0,25.5483871 C0,24.267871 1.04206452,23.2258065 2.32258065,23.2258065 L10.0645161,23.2258065 C11.3450323,23.2258065 12.3870968,24.267871 12.3870968,25.5483871 C12.3870968,26.8289032 11.3450323,27.8709677 10.0645161,27.8709677 Z"/>
        <polygon points="25.548 9.29 33.29 9.29 33.29 10.839 25.548 10.839"/>
        <polygon points="34.839 0 39.484 0 39.484 1.548 34.839 1.548"/>
      </g>
      <path fill="#003A8C" d="M45.6774194,17.0322581 C46.9579355,17.0322581 48,15.9901935 48,14.7096774 L48,2.32258065 C48,1.04206452 46.9579355,0 45.6774194,0 L40.2580645,0 C39.5303226,0 38.835871,0.347612903 38.4007742,0.929032258 L36.7741935,3.09677419 L30.1935484,3.09677419 C28.9130323,3.09677419 27.8709677,4.13883871 27.8709677,5.41935484 L27.8709677,8.51612903 L20.8637419,8.51612903 C20.468129,3.7556129 16.4748387,0 11.6129032,0 C6.49006452,0 2.32258065,4.16748387 2.32258065,9.29032258 C2.32258065,14.1514839 6.07741935,18.1455484 10.8387097,18.5411613 L10.8387097,23.2428387 C4.60954839,23.4178065 0,25.6784516 0,28.6451613 L0,43.3548387 C0,46.371871 5.98374194,48 11.6129032,48 C17.2420645,48 23.2258065,46.371871 23.2258065,43.3548387 L23.2258065,38.7096774 L27.9104516,38.7096774 C28.3083871,43.8975484 32.6477419,48 37.9354839,48 C43.4849032,48 48,43.4849032 48,37.9354839 C48,32.6477419 43.8975484,28.3083871 38.7096774,27.9104516 L38.7096774,17.0322581 L45.6774194,17.0322581 Z M45.6774194,15.483871 L30.1935484,15.483871 C29.7661935,15.483871 29.4193548,15.1362581 29.4193548,14.7096774 L29.4193548,7.74193548 L46.4516129,7.74193548 L46.4516129,14.7096774 C46.4516129,15.1362581 46.1047742,15.483871 45.6774194,15.483871 Z M30.1935484,4.64516129 L37.5483871,4.64516129 L39.6394839,1.85729032 C39.7842581,1.66374194 40.0157419,1.5483871 40.2580645,1.5483871 L45.6774194,1.5483871 C46.1047742,1.5483871 46.4516129,1.896 46.4516129,2.32258065 L46.4516129,6.19354839 L29.4193548,6.19354839 L29.4193548,5.41935484 C29.4193548,4.99277419 29.7661935,4.64516129 30.1935484,4.64516129 Z M3.87096774,9.29032258 C3.87096774,8.48129032 3.99716129,7.70167742 4.22787097,6.96774194 L7.20154839,6.96774194 C7.05832258,7.69083871 6.96774194,8.46193548 6.96774194,9.29032258 C6.96774194,10.1187097 7.05832258,10.8898065 7.20232258,11.6129032 L4.22787097,11.6129032 C3.99716129,10.8789677 3.87096774,10.0993548 3.87096774,9.29032258 Z M8.51612903,9.29032258 C8.51612903,8.45496774 8.62296774,7.68309677 8.79019355,6.96774194 L14.4387097,6.96774194 C14.6043871,7.68232258 14.7096774,8.45419355 14.7096774,9.29032258 C14.7096774,10.1256774 14.6028387,10.8975484 14.4356129,11.6129032 L8.78709677,11.6129032 C8.62141935,10.8983226 8.51612903,10.1264516 8.51612903,9.29032258 L8.51612903,9.29032258 Z M11.6144516,1.8356129 C12.216,2.44722581 13.2433548,3.66812903 13.9509677,5.41935484 L9.27948387,5.41935484 C9.98864516,3.67277419 11.0152258,2.44954839 11.6144516,1.8356129 L11.6144516,1.8356129 Z M13.9463226,13.1612903 C13.2371613,14.9086452 12.2105806,16.131871 11.6113548,16.7450323 C11.0098065,16.1334194 9.98245161,14.9125161 9.27483871,13.1612903 L13.9463226,13.1612903 Z M15.6131613,13.1612903 L18.3073548,13.1612903 C17.2993548,14.8970323 15.6402581,16.2030968 13.6637419,16.748129 C14.3411613,15.8748387 15.0929032,14.6748387 15.6131613,13.1612903 Z M19.3548387,9.29032258 C19.3548387,10.0993548 19.2294194,10.8789677 18.9979355,11.6129032 L16.0242581,11.6129032 C16.1674839,10.8898065 16.2580645,10.1187097 16.2580645,9.29032258 C16.2580645,8.46193548 16.1674839,7.69083871 16.0234839,6.96774194 L18.9971613,6.96774194 C19.2294194,7.70167742 19.3548387,8.48129032 19.3548387,9.29032258 Z M18.3073548,5.41935484 L15.6131613,5.41935484 C15.0929032,3.90580645 14.3411613,2.70580645 13.6637419,1.83251613 C15.6402581,2.37754839 17.2993548,3.6836129 18.3073548,5.41935484 Z M9.56206452,1.83251613 C8.88464516,2.70580645 8.13290323,3.90580645 7.61264516,5.41935484 L4.91845161,5.41935484 C5.92645161,3.6836129 7.58554839,2.37754839 9.56206452,1.83251613 Z M4.91845161,13.1612903 L7.61264516,13.1612903 C8.13290323,14.6748387 8.88464516,15.8748387 9.56206452,16.748129 C7.58554839,16.2030968 5.92645161,14.8970323 4.91845161,13.1612903 Z M11.6129032,24.7741935 C17.544,24.7741935 21.6774194,26.8141935 21.6774194,28.6451613 C21.6774194,30.476129 17.544,32.516129 11.6129032,32.516129 C5.68180645,32.516129 1.5483871,30.476129 1.5483871,28.6451613 C1.5483871,26.8141935 5.68180645,24.7741935 11.6129032,24.7741935 Z M1.5483871,31.4190968 C3.51793548,33.0247742 7.19845161,34.0645161 11.6129032,34.0645161 C16.0273548,34.0645161 19.707871,33.0247742 21.6774194,31.4190968 L21.6774194,34.0645161 C21.6774194,35.3272258 17.7569032,37.1612903 11.6129032,37.1612903 C5.46890323,37.1612903 1.5483871,35.3272258 1.5483871,34.0645161 L1.5483871,31.4190968 Z M1.5483871,36.4699355 C3.69058065,37.9370323 7.73496774,38.7096774 11.6129032,38.7096774 C15.4908387,38.7096774 19.5352258,37.9370323 21.6774194,36.4699355 L21.6774194,38.7096774 C21.6774194,39.9723871 17.7569032,41.8064516 11.6129032,41.8064516 C5.46890323,41.8064516 1.5483871,39.9723871 1.5483871,38.7096774 L1.5483871,36.4699355 Z M11.6129032,46.4516129 C5.46890323,46.4516129 1.5483871,44.6175484 1.5483871,43.3548387 L1.5483871,41.1150968 C3.69058065,42.5821935 7.73496774,43.3548387 11.6129032,43.3548387 C15.4908387,43.3548387 19.5352258,42.5821935 21.6774194,41.1150968 L21.6774194,43.3548387 C21.6774194,44.6175484 17.7569032,46.4516129 11.6129032,46.4516129 Z M32.0129032,44.0423226 C32.7212903,41.7994839 34.772129,40.2580645 37.1612903,40.2580645 L38.7096774,40.2580645 C41.1003871,40.2580645 43.1512258,41.7994839 43.8580645,44.0423226 C42.3236129,45.5303226 40.2363871,46.4516129 37.9354839,46.4516129 C35.6345806,46.4516129 33.5473548,45.5303226 32.0129032,44.0423226 Z M37.9354839,38.7096774 C36.2276129,38.7096774 34.8387097,37.3207742 34.8387097,35.6129032 C34.8387097,33.9050323 36.2276129,32.516129 37.9354839,32.516129 C39.6433548,32.516129 41.0322581,33.9050323 41.0322581,35.6129032 C41.0322581,37.3207742 39.6433548,38.7096774 37.9354839,38.7096774 Z M46.4516129,37.9354839 C46.4516129,39.6929032 45.915871,41.3272258 45.0007742,42.6851613 C44.1994839,40.9865806 42.7556129,39.6983226 41.0020645,39.0936774 C41.9674839,38.2412903 42.5806452,36.9987097 42.5806452,35.6129032 C42.5806452,33.0510968 40.4972903,30.9677419 37.9354839,30.9677419 C35.3736774,30.9677419 33.2903226,33.0510968 33.2903226,35.6129032 C33.2903226,36.9987097 33.9034839,38.2412903 34.8696774,39.0936774 C33.116129,39.6990968 31.6730323,40.9873548 30.8709677,42.6851613 C29.9550968,41.3272258 29.4193548,39.6929032 29.4193548,37.9354839 C29.4193548,33.24 33.24,29.4193548 37.9354839,29.4193548 C42.6309677,29.4193548 46.4516129,33.24 46.4516129,37.9354839 Z M37.1612903,27.9104516 C32.2296774,28.2882581 28.2882581,32.2296774 27.9104516,37.1612903 L23.2258065,37.1612903 L23.2258065,28.6451613 C23.2258065,25.6784516 18.6162581,23.4178065 12.3870968,23.2428387 L12.3870968,18.5411613 C16.892129,18.1664516 20.4898065,14.5695484 20.8637419,10.0645161 L27.8709677,10.0645161 L27.8709677,14.7096774 C27.8709677,15.9901935 28.9130323,17.0322581 30.1935484,17.0322581 L37.1612903,17.0322581 L37.1612903,27.9104516 Z"/>
      <polygon fill="#003A8C" points="43.355 3.097 44.903 3.097 44.903 4.645 43.355 4.645"/>
      <polygon fill="#003A8C" points="40.258 3.097 41.806 3.097 41.806 4.645 40.258 4.645"/>
      <polygon fill="#003A8C" points="30.968 12.387 32.516 12.387 32.516 13.935 30.968 13.935"/>
      <polygon fill="#003A8C" points="34.065 12.387 35.613 12.387 35.613 13.935 34.065 13.935"/>
      <polygon fill="#003A8C" points="37.161 12.387 38.71 12.387 38.71 13.935 37.161 13.935"/>
      <polygon fill="#003A8C" points="12.387 8.516 13.935 8.516 13.935 10.065 12.387 10.065"/>
      <polygon fill="#003A8C" points="9.29 8.516 10.839 8.516 10.839 10.065 9.29 10.065"/>
    </g>
  </g>
</svg>
