<svg xmlns="http://www.w3.org/2000/svg" width="64" height="64" viewBox="0 0 64 64">
  <g fill="none" fill-rule="evenodd">
    <rect width="64" height="64" rx="4"/>
    <g fill-rule="nonzero" transform="translate(8 8)">
      <path fill="#003A8C" d="M47.1018711,0.0997920998 L23.1517672,0.0997920998 C22.7108579,0.0997920998 22.3534304,0.457219659 22.3534304,0.898128898 L22.3534304,11.2765073 L3.99168399,11.2765073 C1.7871378,11.2765073 0,13.0636451 0,15.2681913 L0,36.024948 C0,37.0836084 0.420551213,38.0989089 1.16913717,38.8474948 C1.91772313,39.5960808 2.93302357,40.016632 3.99168399,40.016632 L13.5717256,40.016632 L13.5717256,43.2099792 L12.7733888,43.2099792 C11.4522988,43.2139248 10.3823239,44.2838996 10.3783784,45.6049896 L10.3783784,47.2016632 C10.3783784,47.6425724 10.7358059,48 11.1767152,48 L25.5467775,48 C25.9876868,48 26.3451143,47.6425724 26.3451143,47.2016632 L26.3451143,45.6049896 C26.3411688,44.2838996 25.2711939,43.2139248 23.950104,43.2099792 L23.1517672,43.2099792 L23.1517672,40.016632 L32.7318087,40.016632 C33.7904691,40.016632 34.8057696,39.5960808 35.5543556,38.8474948 C36.3029415,38.0989089 36.7234927,37.0836084 36.7234927,36.024948 L36.7234927,20.8565489 L47.1018711,20.8565489 C47.5427803,20.8565489 47.9002079,20.4991213 47.9002079,20.0582121 L47.9002079,0.898128898 C47.9002079,0.457219659 47.5427803,0.0997920998 47.1018711,0.0997920998 L47.1018711,0.0997920998 Z M23.950104,44.8066528 C24.3910132,44.8066528 24.7484407,45.1640804 24.7484407,45.6049896 L24.7484407,46.4033264 L11.975052,46.4033264 L11.975052,45.6049896 C11.975052,45.1640804 12.3324795,44.8066528 12.7733888,44.8066528 L23.950104,44.8066528 Z M15.1683992,43.2099792 L15.1683992,40.016632 L21.5550936,40.016632 L21.5550936,43.2099792 L15.1683992,43.2099792 Z M35.1268191,36.024948 C35.1228736,37.346038 34.0528987,38.4160129 32.7318087,38.4199584 L3.99168399,38.4199584 C2.67059402,38.4160129 1.60061914,37.346038 1.5966736,36.024948 L1.5966736,35.2266112 L35.1268191,35.2266112 L35.1268191,36.024948 Z M35.1268191,33.6299376 L1.5966736,33.6299376 L1.5966736,15.2681913 C1.60061914,13.9471013 2.67059402,12.8771264 3.99168399,12.8731809 L22.3534304,12.8731809 L22.3534304,20.0582121 C22.3534304,20.4991213 22.7108579,20.8565489 23.1517672,20.8565489 L35.1268191,20.8565489 L35.1268191,33.6299376 Z M46.3035343,19.2598753 L23.950104,19.2598753 L23.950104,1.6964657 L46.3035343,1.6964657 L46.3035343,19.2598753 Z"/>
      <path fill="#003A8C" d="M11.975052,14.4698545 C7.12505035,14.4698545 3.19334719,18.4015576 3.19334719,23.2515593 C3.19334719,28.1015609 7.12505035,32.033264 11.975052,32.033264 C16.8250536,32.033264 20.7567568,28.1015609 20.7567568,23.2515593 C20.7510379,18.4039284 16.8226828,14.4755734 11.975052,14.4698545 L11.975052,14.4698545 Z M11.975052,30.4365904 C8.00686882,30.4365904 4.79002079,27.2197424 4.79002079,23.2515593 C4.79002079,19.2833761 8.00686882,16.0665281 11.975052,16.0665281 C15.9432351,16.0665281 19.1600832,19.2833761 19.1600832,23.2515593 C19.1556834,27.2179185 15.9414113,30.4321907 11.975052,30.4365904 Z"/>
      <path fill="#003A8C" d="M11.975052,20.8565489 C12.4159612,20.8565489 12.7733888,21.2139764 12.7733888,21.6548857 L14.3700624,21.6548857 C14.36587,20.6435642 13.726883,19.7438706 12.7733888,19.4067692 L12.7733888,18.4615385 L11.1767152,18.4615385 L11.1767152,19.4067692 C10.0777667,19.7938447 9.41822374,20.917098 9.61565752,22.0653729 C9.8130913,23.2136477 10.8099295,24.0521038 11.975052,24.049896 C12.4159612,24.049896 12.7733888,24.4073236 12.7733888,24.8482328 C12.7733888,25.2891421 12.4159612,25.6465696 11.975052,25.6465696 C11.5341427,25.6465696 11.1767152,25.2891421 11.1767152,24.8482328 L9.58004158,24.8482328 C9.58423396,25.8595543 10.2232209,26.7592479 11.1767152,27.0963493 L11.1767152,28.04158 L12.7733888,28.04158 L12.7733888,27.0963493 C13.8723373,26.7092738 14.5318802,25.5860205 14.3344464,24.4377456 C14.1370127,23.2894708 13.1401744,22.4510147 11.975052,22.4532225 C11.5341427,22.4532225 11.1767152,22.0957949 11.1767152,21.6548857 C11.1767152,21.2139764 11.5341427,20.8565489 11.975052,20.8565489 L11.975052,20.8565489 Z"/>
      <path fill="#1890FF" d="M47.7165904 27.5306445L43.7249064 22.7406237C43.5685901 22.5654507 43.3449644 22.4652876 43.1101871 22.4652876 42.8754098 22.4652876 42.6517841 22.5654507 42.4954678 22.7406237L38.5037838 27.5306445C38.3054031 27.7688166 38.2628188 28.1002917 38.3945555 28.3808738 38.5262922 28.6614559 38.8085344 28.8404209 39.1185031 28.8399168L40.7151767 28.8399168 40.7151767 47.2016632C40.7151767 47.6425724 41.0726043 48 41.5135135 48L44.7068607 48C45.1477699 48 45.5051975 47.6425724 45.5051975 47.2016632L45.5051975 28.8399168 47.1018711 28.8399168C47.4118398 28.8404209 47.694082 28.6614559 47.8258187 28.3808738 47.9575554 28.1002917 47.9149711 27.7688166 47.7165904 27.5306445L47.7165904 27.5306445zM20.4693555 4.27509356L15.6793347.283409563C15.4411626.0850289215 15.1096875.0424445788 14.8291054.174181278 14.5485234.305917977 14.3695583.588160195 14.3700624.898128898L14.3700624 2.49480249.798336798 2.49480249C.357427559 2.49480249 0 2.85223005 0 3.29313929L0 6.48648649C0 6.92739573.357427559 7.28482328.798336798 7.28482328L14.3700624 7.28482328 14.3700624 8.88149688C14.3692908 9.19330408 14.5501239 9.4770249 14.8330977 9.60798337 14.9385207 9.65539225 15.0528067 9.6798352 15.1683992 9.6798352 15.3549323 9.68019813 15.5357043 9.61523319 15.6793347 9.49621622L20.4693555 5.50453222C20.6523904 5.35286428 20.7583184 5.12752059 20.7583184 4.88981289 20.7583184 4.65210519 20.6523904 4.4267615 20.4693555 4.27509356L20.4693555 4.27509356z"/>
      <path fill="#003A8C" d="M27.1434511 17.6632017L30.3367983 17.6632017C30.7777076 17.6632017 31.1351351 17.3057741 31.1351351 16.8648649L31.1351351 10.4781705C31.1351351 10.0372612 30.7777076 9.67983368 30.3367983 9.67983368L27.1434511 9.67983368C26.7025419 9.67983368 26.3451143 10.0372612 26.3451143 10.4781705L26.3451143 16.8648649C26.3451143 17.3057741 26.7025419 17.6632017 27.1434511 17.6632017zM27.9417879 11.2765073L29.5384615 11.2765073 29.5384615 16.0665281 27.9417879 16.0665281 27.9417879 11.2765073zM33.5301455 17.6632017L36.7234927 17.6632017C37.164402 17.6632017 37.5218295 17.3057741 37.5218295 16.8648649L37.5218295 7.28482328C37.5218295 6.84391405 37.164402 6.48648649 36.7234927 6.48648649L33.5301455 6.48648649C33.0892363 6.48648649 32.7318087 6.84391405 32.7318087 7.28482328L32.7318087 16.8648649C32.7318087 17.3057741 33.0892363 17.6632017 33.5301455 17.6632017zM34.3284823 8.08316008L35.9251559 8.08316008 35.9251559 16.0665281 34.3284823 16.0665281 34.3284823 8.08316008zM39.9168399 17.6632017L43.1101871 17.6632017C43.5510963 17.6632017 43.9085239 17.3057741 43.9085239 16.8648649L43.9085239 4.09147609C43.9085239 3.65056685 43.5510963 3.29313929 43.1101871 3.29313929L39.9168399 3.29313929C39.4759307 3.29313929 39.1185031 3.65056685 39.1185031 4.09147609L39.1185031 16.8648649C39.1185031 17.3057741 39.4759307 17.6632017 39.9168399 17.6632017zM40.7151767 4.88981289L42.3118503 4.88981289 42.3118503 16.0665281 40.7151767 16.0665281 40.7151767 4.88981289z"/>
      <polygon fill="#003A8C" points="22.353 22.453 25.547 22.453 25.547 24.05 22.353 24.05"/>
      <polygon fill="#003A8C" points="27.143 22.453 31.933 22.453 31.933 24.05 27.143 24.05"/>
      <polygon fill="#003A8C" points="22.353 25.647 25.547 25.647 25.547 27.243 22.353 27.243"/>
      <polygon fill="#003A8C" points="27.143 25.647 31.933 25.647 31.933 27.243 27.143 27.243"/>
      <polygon fill="#003A8C" points="22.353 28.84 25.547 28.84 25.547 30.437 22.353 30.437"/>
      <polygon fill="#003A8C" points="27.143 28.84 31.933 28.84 31.933 30.437 27.143 30.437"/>
    </g>
  </g>
</svg>
