<svg xmlns="http://www.w3.org/2000/svg" width="16" height="16" viewBox="0 0 16 16">
  <g fill="none">
    <rect width="16" height="16" fill="#000" opacity="0"/>
    <path fill="#666" d="M13.5625,11.4375 L12.4640625,11.4375 C12.3890625,11.4375 12.31875,11.4703125 12.271875,11.528125 C12.1625,11.6609375 12.0453125,11.7890625 11.921875,11.9109375 C11.4125,12.41875 10.8203125,12.81875 10.1609375,13.096875 C9.4796875,13.384375 8.7546875,13.53125 8.00625,13.53125 C7.2578125,13.53125 6.5328125,13.384375 5.8515625,13.096875 C5.1921875,12.81875 4.6,12.41875 4.090625,11.9109375 C3.58125,11.403125 3.1828125,10.8109375 2.903125,10.153125 C2.6140625,9.471875 2.46875,8.7484375 2.46875,8 C2.46875,7.2515625 2.615625,6.528125 2.903125,5.846875 C3.18125,5.1890625 3.58125,4.596875 4.090625,4.0890625 C4.6,3.58125 5.1921875,3.18125 5.8515625,2.903125 C6.5328125,2.615625 7.2578125,2.46875 8.00625,2.46875 C8.7546875,2.46875 9.4796875,2.6140625 10.1609375,2.903125 C10.8203125,3.18125 11.4125,3.58125 11.921875,4.0890625 C12.0453125,4.2125 12.1609375,4.340625 12.271875,4.471875 C12.31875,4.5296875 12.390625,4.5625 12.4640625,4.5625 L13.5625,4.5625 C13.6609375,4.5625 13.721875,4.453125 13.6671875,4.3703125 C12.46875,2.5078125 10.371875,1.275 7.9890625,1.28122635 C4.2453125,1.290625 1.24375,4.3296875 1.28125,8.06875 C1.31875,11.7484375 4.315625,14.71875 8.00625,14.71875 C10.3828125,14.71875 12.4703125,13.4875 13.6671875,11.6296875 C13.7203125,11.546875 13.6609375,11.4375 13.5625,11.4375 Z M14.9515625,7.9015625 L12.734375,6.1515625 C12.6515625,6.0859375 12.53125,6.1453125 12.53125,6.25 L12.53125,7.4375 L7.625,7.4375 C7.55625,7.4375 7.5,7.49375 7.5,7.5625 L7.5,8.4375 C7.5,8.50625 7.55625,8.5625 7.625,8.5625 L12.53125,8.5625 L12.53125,9.75 C12.53125,9.8546875 12.653125,9.9140625 12.734375,9.8484375 L14.9515625,8.0984375 C15.015625,8.0484375 15.015625,7.9515625 14.9515625,7.9015625 L14.9515625,7.9015625 Z"/>
  </g>
</svg>
