<?xml version="1.0" encoding="UTF-8"?>
<svg width="102px" height="28px" viewBox="0 0 102 28" version="1.1" xmlns="http://www.w3.org/2000/svg" xmlns:xlink="http://www.w3.org/1999/xlink">
    <title>编组</title>
    <defs>
        <polygon id="path-1" points="0.097125 0.291666667 14.0968333 0.291666667 14.0968333 14.2916667 0.097125 14.2916667"></polygon>
        <polygon id="path-3" points="0 28 101.0135 28 101.0135 0 0 0"></polygon>
    </defs>
    <g id="landing-page-iData" stroke="none" stroke-width="1" fill="none" fill-rule="evenodd">
        <g id="默认" transform="translate(-140.000000, -16.000000)">
            <g id="编组" transform="translate(140.000000, 16.000000)">
                <polygon id="Fill-1" fill="#003A8C" points="0.000525 20.502475 6.17335833 16.9388917 6.17335833 10.838975 0.000525 7.27480833"></polygon>
                <polygon id="Fill-2" fill="#003A8C" points="11.90175 0.000175 0.541916667 6.55859167 6.71533333 10.1227583 11.90175 7.12850833"></polygon>
                <polygon id="Fill-3" fill="#003A8C" points="12.792675 0.000175 12.792675 7.12850833 17.9785083 10.1227583 24.151925 6.55859167"></polygon>
                <polygon id="Fill-4" fill="#003A8C" points="12.792675 20.871025 12.792675 27.9999417 24.3455917 21.3306917 18.1715917 17.7653583"></polygon>
                <polygon id="Fill-5" fill="#003A8C" points="0.349125 21.3304 11.9020417 28.0002333 11.9020417 20.8707333 6.52195833 17.76565"></polygon>
                <polygon id="Fill-6" fill="#003A8C" points="18.5205417 10.8386833 18.5205417 16.9386 24.6939583 20.5027667 24.6939583 7.27451667"></polygon>
                <polygon id="Fill-7" fill="#1890FF" points="12.347125 10.4356 9.260125 12.2176833 9.260125 15.7824333 12.347125 17.5645167 15.434125 15.7824333 15.434125 12.2176833"></polygon>
                <polygon id="Fill-8" fill="#1890FF" points="84.6804583 10.2083333 82.347125 10.2083333 82.347125 4.95833333 79.4304583 4.95833333 79.4304583 10.2083333 77.097125 10.2083333 77.097125 13.125 79.4304583 13.125 79.4304583 23.625 82.347125 23.625 82.347125 13.125 84.6804583 13.125"></polygon>
                <g>
                    <path d="M49.097125,20.4166667 L46.1804583,20.4166667 L46.1804583,7.58333333 L49.097125,7.58333333 C52.6350417,7.58333333 55.5137917,10.4620833 55.5137917,14 C55.5137917,17.5379167 52.6350417,20.4166667 49.097125,20.4166667 M49.097125,4.66666667 L46.1804583,4.66666667 L43.2637917,4.66666667 L43.2637917,23.3333333 L46.1804583,23.3333333 L49.097125,23.3333333 C54.2520417,23.3333333 58.4304583,19.1543333 58.4304583,14 C58.4304583,8.84566667 54.2520417,4.66666667 49.097125,4.66666667" id="Fill-9" fill="#1890FF"></path>
                    <path d="M67.7637917,21 C65.5127083,21 63.6804583,19.1683333 63.6804583,16.9166667 C63.6804583,14.665 65.5127083,12.8333333 67.7637917,12.8333333 C70.014875,12.8333333 71.847125,14.665 71.847125,16.9166667 C71.847125,19.1683333 70.014875,21 67.7637917,21 L67.7637917,21 Z M71.847125,10.7916667 L71.847125,11.2390833 C70.6967917,10.4101667 69.2892083,9.91666667 67.7637917,9.91666667 C63.8980417,9.91666667 60.7637917,13.0509167 60.7637917,16.9166667 C60.7637917,20.7824167 63.8980417,23.9166667 67.7637917,23.9166667 C69.2892083,23.9166667 70.6967917,23.4225833 71.847125,22.59425 L71.847125,23.625 L74.7637917,23.625 L74.7637917,10.7916667 L71.847125,10.7916667 Z" id="Fill-11" fill="#1890FF"></path>
                    <g transform="translate(86.916667, 9.916667)">
                        <mask id="mask-2" fill="white">
                            <use xlink:href="#path-1"></use>
                        </mask>
                        <g id="Clip-14"></g>
                        <path d="M7.097125,11.375 C4.84604167,11.375 3.01379167,9.54333333 3.01379167,7.29166667 C3.01379167,5.04 4.84604167,3.20833333 7.097125,3.20833333 C9.34820833,3.20833333 11.1804583,5.04 11.1804583,7.29166667 C11.1804583,9.54333333 9.34820833,11.375 7.097125,11.375 L7.097125,11.375 Z M11.1804583,0.875 L11.1804583,1.61408333 C10.030125,0.785166667 8.62254167,0.291666667 7.097125,0.291666667 C3.231375,0.291666667 0.097125,3.42591667 0.097125,7.29166667 C0.097125,11.1574167 3.231375,14.2916667 7.097125,14.2916667 C8.62254167,14.2916667 10.030125,13.7975833 11.1804583,12.96925 L11.1804583,13.7083333 L14.097125,13.7083333 L14.097125,0.875 L11.1804583,0.875 Z" id="Fill-13" fill="#1890FF" mask="url(#mask-2)"></path>
                    </g>
                    <mask id="mask-4" fill="white">
                        <use xlink:href="#path-3"></use>
                    </mask>
                    <g id="Clip-16"></g>
                    <polygon id="Fill-15" fill="#1890FF" mask="url(#mask-4)" points="35.68075 23.3333333 38.5974167 23.3333333 38.5974167 11.6666667 35.68075 11.6666667"></polygon>
                    <path d="M38.8887917,6.41666667 L38.8887917,6.41666667 C38.8887917,5.79133333 38.555125,5.21383333 38.0137917,4.90116667 C37.4724583,4.5885 36.8057083,4.5885 36.2637917,4.90116667 C35.721875,5.21383333 35.3887917,5.79133333 35.3887917,6.41666667 C35.3887917,7.042 35.721875,7.6195 36.2637917,7.93216667 C36.805125,8.24483333 37.4724583,8.24483333 38.0137917,7.93216667 C38.555125,7.6195 38.8887917,7.042 38.8887917,6.41666667" id="Fill-17" fill="#1890FF" mask="url(#mask-4)"></path>
                </g>
            </g>
        </g>
    </g>
</svg>