<svg xmlns="http://www.w3.org/2000/svg" width="64" height="64" viewBox="0 0 64 64">
  <g fill="none" fill-rule="evenodd">
    <rect width="64" height="64" rx="4"/>
    <g transform="translate(8 8)">
      <polygon fill="#1890FF" points="2.119 46.452 5.362 47.249 14.887 37.935 10.15 33.113 1.052 42.943"/>
      <path fill="#1890FF" d="M22.5,15 C28.2989899,15 33,19.7010101 33,25.5 C33,31.2989899 28.2989899,36 22.5,36 C16.7010101,36 12,31.2989899 12,25.5 C12,19.7010101 16.7010101,15 22.5,15 Z M22.4516129,17.0322581 C17.756129,17.0322581 13.9354839,20.8529032 13.9354839,25.5483871 C13.9354839,30.243871 17.756129,34.0645161 22.4516129,34.0645161 C27.1470968,34.0645161 30.9677419,30.243871 30.9677419,25.5483871 C30.9677419,20.8529032 27.1470968,17.0322581 22.4516129,17.0322581 Z"/>
      <path fill="#003A8C" fill-rule="nonzero" d="M22.4516129 17.0322581C17.756129 17.0322581 13.9354839 20.8529032 13.9354839 25.5483871 13.9354839 30.243871 17.756129 34.0645161 22.4516129 34.0645161 27.1470968 34.0645161 30.9677419 30.243871 30.9677419 25.5483871 30.9677419 20.8529032 27.1470968 17.0322581 22.4516129 17.0322581zM28.9525161 23.0616774C23.544 22.5607742 20.0283871 21.0270968 18.9452903 19.5375484 19.9765161 18.9329032 21.1726452 18.5806452 22.4516129 18.5806452 25.4167742 18.5806452 27.9483871 20.4456774 28.9525161 23.0616774zM15.483871 25.5483871C15.483871 23.8947097 16.0660645 22.3749677 17.0322581 21.1788387L17.0322581 24.7741935C17.0322581 27.5295484 20.9845161 29.7592258 27.2221935 30.6131613 25.9741935 31.7891613 24.2980645 32.516129 22.4516129 32.516129 18.6100645 32.516129 15.483871 29.3899355 15.483871 25.5483871zM28.3788387 29.1925161C22.0165161 28.4941935 18.5806452 26.4209032 18.5806452 24.7741935L18.5806452 21.3762581C20.6067097 23.0609032 24.4869677 24.2647742 29.3543226 24.6464516 29.3930323 24.9421935 29.4193548 25.2418065 29.4193548 25.5483871 29.4193548 26.8854194 29.0345806 28.1303226 28.3788387 29.1925161zM38.5734194 13.4957419L38.8064516 15.0270968C39.3352258 14.9465806 39.8562581 14.8552258 40.3672258 14.7530323L40.0629677 13.2348387C39.576 13.3316129 39.0781935 13.4190968 38.5734194 13.4957419L38.5734194 13.4957419zM41.5331613 12.9003871L41.9171613 14.4007742C42.4436129 14.2660645 42.9553548 14.1181935 43.4508387 13.9579355L42.9739355 12.4846452C42.5094194 12.6348387 42.027871 12.7741935 41.5331613 12.9003871L41.5331613 12.9003871zM35.5579355 13.8286452L35.6686452 15.3731613C36.1966452 15.3352258 36.72 15.288 37.2394839 15.2314839L37.0714839 13.6923871C36.5705806 13.7465806 36.0658065 13.7922581 35.5579355 13.8286452zM38.5734194 25.8828387L38.8064516 27.4141935C39.3352258 27.3336774 39.8562581 27.2423226 40.3672258 27.140129L40.0629677 25.6219355C39.576 25.7187097 39.0781935 25.8061935 38.5734194 25.8828387L38.5734194 25.8828387zM41.5331613 25.2874839L41.9171613 26.787871C42.4436129 26.6531613 42.9553548 26.5052903 43.4508387 26.3450323L42.9739355 24.8717419C42.5094194 25.0219355 42.027871 25.1612903 41.5331613 25.2874839L41.5331613 25.2874839zM35.5579355 26.2157419L35.6686452 27.7602581C36.1966452 27.7223226 36.72 27.6750968 37.2394839 27.6185806L37.0714839 26.0794839C36.5705806 26.1336774 36.0658065 26.1793548 35.5579355 26.2157419z"/>
      <path fill="#003A8C" fill-rule="nonzero" d="M32.516129,0 C25.0103226,0 17.0322581,2.17083871 17.0322581,6.19354839 L17.0322581,15.2856774 C13.3532903,17.2366452 10.8387097,21.1021935 10.8387097,25.5483871 C10.8387097,27.8771613 11.5347097,30.0433548 12.7192258,31.8634839 L11.2258065,33.3569032 L10.0645161,32.1956129 L1.18916129,41.0709677 C0.421935484,41.8381935 0,42.8570323 0,43.9409032 C0,46.1790968 1.82090323,48 4.05909677,48 C5.14296774,48 6.16258065,47.5780645 6.92903226,46.8108387 L15.8043871,37.9354839 L14.6430968,36.7741935 L16.1365161,35.2807742 C17.9566452,36.4652903 20.1228387,37.1612903 22.4516129,37.1612903 C26.8985806,37.1612903 30.7649032,34.6459355 32.7150968,30.9661935 C40.1628387,30.9282581 48,28.7612903 48,24.7741935 L48,6.19354839 C48,2.17083871 40.0219355,0 32.516129,0 Z M32.516129,1.5483871 C40.7287742,1.5483871 46.4516129,3.9963871 46.4516129,6.19354839 C46.4516129,8.39070968 40.7287742,10.8387097 32.516129,10.8387097 C24.3034839,10.8387097 18.5806452,8.39070968 18.5806452,6.19354839 C18.5806452,3.9963871 24.3034839,1.5483871 32.516129,1.5483871 Z M5.83432258,45.716129 C5.35974194,46.1907097 4.72954839,46.4516129 4.05909677,46.4516129 C2.67483871,46.4516129 1.5483871,45.3251613 1.5483871,43.9409032 C1.5483871,43.2704516 1.80929032,42.6402581 2.28387097,42.1656774 L10.0645161,34.3850323 L13.6149677,37.9354839 L5.83432258,45.716129 Z M13.5483871,35.6794839 L12.3205161,34.4516129 L13.6590968,33.1130323 C14.0376774,33.552 14.448,33.9623226 14.8869677,34.3409032 L13.5483871,35.6794839 Z M22.4516129,35.6129032 C16.9021935,35.6129032 12.3870968,31.0978065 12.3870968,25.5483871 C12.3870968,19.9989677 16.9021935,15.483871 22.4516129,15.483871 C28.0010323,15.483871 32.516129,19.9989677 32.516129,25.5483871 C32.516129,31.0978065 28.0010323,35.6129032 22.4516129,35.6129032 Z M33.3932903,29.4030968 C33.819871,28.1945806 34.0645161,26.9009032 34.0645161,25.5483871 C34.0645161,25.2750968 34.0420645,25.0072258 34.0234839,24.7385806 C40.176,24.5256774 44.3651613,23.1205161 46.4516129,21.3483871 L46.4516129,24.7741935 C46.4516129,26.8916129 41.1290323,29.2350968 33.3932903,29.4030968 Z M33.8245161,23.1971613 C33.4699355,21.4784516 32.7243871,19.9052903 31.700129,18.5543226 C31.9734194,18.5597419 32.2428387,18.5806452 32.516129,18.5806452 C38.0190968,18.5806452 43.7705806,17.4123871 46.4516129,15.2051613 L46.4516129,18.5806452 C46.4516129,20.6129032 41.2954839,22.9486452 33.8245161,23.1971613 Z M32.516129,17.0322581 C31.7527742,17.0322581 30.9909677,17.0028387 30.24,16.9594839 C28.1767742,15.0874839 25.4500645,13.9354839 22.4516129,13.9354839 C21.0929032,13.9354839 19.7938065,14.1824516 18.5806452,14.6129032 L18.5806452,9.0116129 C21.2616774,11.2188387 27.0131613,12.3870968 32.516129,12.3870968 C38.0190968,12.3870968 43.7705806,11.2188387 46.4516129,9.0116129 L46.4516129,12.3870968 C46.4516129,14.5842581 40.7287742,17.0322581 32.516129,17.0322581 Z"/>
      <path fill="#003A8C" fill-rule="nonzero" d="M32.516129 9.29032258C33.6255484 9.29032258 43.3548387 9.2036129 43.3548387 6.19354839 43.3548387 3.18348387 33.6255484 3.09677419 32.516129 3.09677419 31.4067097 3.09677419 21.6774194 3.18348387 21.6774194 6.19354839 21.6774194 9.2036129 31.4067097 9.29032258 32.516129 9.29032258zM32.516129 4.64516129C37.8805161 4.64516129 41.2087742 5.59974194 41.763871 6.19354839 41.2087742 6.78735484 37.8805161 7.74193548 32.516129 7.74193548 27.1517419 7.74193548 23.8234839 6.78735484 23.2683871 6.19354839 23.8234839 5.59974194 27.1517419 4.64516129 32.516129 4.64516129zM6.19354839 12.3870968L15.483871 12.3870968 15.483871 6.19354839C15.483871 2.77858065 12.7052903 8.8817842e-16 9.29032258 8.8817842e-16L6.19354839 8.8817842e-16C2.77858065 8.8817842e-16 5.32907052e-15 2.77858065 5.32907052e-15 6.19354839 5.32907052e-15 9.60851613 2.77858065 12.3870968 6.19354839 12.3870968zM6.19354839 1.5483871L9.29032258 1.5483871C11.852129 1.5483871 13.9354839 3.63174194 13.9354839 6.19354839L13.9354839 10.8387097 6.19354839 10.8387097C3.63174194 10.8387097 1.5483871 8.75535484 1.5483871 6.19354839 1.5483871 3.63174194 3.63174194 1.5483871 6.19354839 1.5483871zM42.5806452 32.516129L32.516129 32.516129 32.516129 37.9354839C32.516129 40.923871 34.9470968 43.3548387 37.9354839 43.3548387L42.5806452 43.3548387C45.5690323 43.3548387 48 40.923871 48 37.9354839 48 34.9470968 45.5690323 32.516129 42.5806452 32.516129zM42.5806452 41.8064516L37.9354839 41.8064516C35.8010323 41.8064516 34.0645161 40.0699355 34.0645161 37.9354839L34.0645161 34.0645161 42.5806452 34.0645161C44.7150968 34.0645161 46.4516129 35.8010323 46.4516129 37.9354839 46.4516129 40.0699355 44.7150968 41.8064516 42.5806452 41.8064516z"/>
      <polygon fill="#003A8C" fill-rule="nonzero" points="12.387 7.742 10.839 7.742 10.839 3.097 9.29 3.097 9.29 7.742 7.742 7.742 7.742 4.645 6.194 4.645 6.194 7.742 4.645 7.742 4.645 3.097 3.097 3.097 3.097 9.29 12.387 9.29"/>
      <polygon fill="#003A8C" fill-rule="nonzero" points="35.613 35.613 37.161 35.613 37.161 37.161 35.613 37.161"/>
      <polygon fill="#003A8C" fill-rule="nonzero" points="38.71 35.613 40.258 35.613 40.258 37.161 38.71 37.161"/>
      <polygon fill="#003A8C" fill-rule="nonzero" points="35.613 38.71 44.903 38.71 44.903 40.258 35.613 40.258"/>
      <polygon fill="#003A8C" fill-rule="nonzero" points="41.806 35.613 43.355 35.613 43.355 37.161 41.806 37.161"/>
    </g>
  </g>
</svg>
