<svg xmlns="http://www.w3.org/2000/svg" width="64" height="64" viewBox="0 0 64 64">
  <g fill="none" fill-rule="evenodd">
    <rect width="64" height="64" rx="4"/>
    <g fill-rule="nonzero" transform="translate(8 8)">
      <g fill="#0086F6" transform="translate(.8 .8)">
        <circle cx="34.4" cy="12" r="12"/>
        <path d="M29.411144 43.2L16.188853 43.2C15.6343287 43.2 15.1193419 42.9128765 14.8278112 42.4411699 14.5362804 41.9694634 14.5097781 41.3804396 14.757769 40.884458L19.557769 31.284458C19.8287964 30.7424035 20.3828176 30.4 20.988853 30.4L34.211144 30.4C34.7656683 30.4 35.2806551 30.6871235 35.5721858 31.1588301 35.8637166 31.6305366 35.8902189 32.2195604 35.642228 32.715542L30.842228 42.315542C30.5712006 42.8575965 30.0171794 43.2 29.411144 43.2L29.411144 43.2zM1.36842105 43.2L13 43.2 13 46.4 1.36842105 46.4C.612662974 46.4 0 45.6836556 0 44.8 0 43.9163444.612662974 43.2 1.36842105 43.2z"/>
      </g>
      <path fill="#FFF" d="M27.011144,44 L16.988853,44 C16.4343287,44 15.9193419,43.7128765 15.6278112,43.2411699 C15.3362804,42.7694634 15.3097781,42.1804396 15.557769,41.684458 L20.357769,32.084458 C20.6287964,31.5424035 21.1828176,31.2 21.788853,31.2 L31.811144,31.2 C32.3656683,31.2 32.8806551,31.4871235 33.1721858,31.9588301 C33.4637166,32.4305366 33.4902189,33.0195604 33.242228,33.515542 L28.442228,43.115542 C28.1712006,43.6575965 27.6171794,44 27.011144,44 L27.011144,44 Z"/>
      <path fill="#003A8C" d="M35.010986,30.399984 C35.8428329,30.3997212 36.6154865,30.8302714 37.0529018,31.5378285 C37.4903172,32.2453856 37.5300905,33.1290061 37.158012,33.873 L37.158012,33.873 L32.471,43.247 C33.6808209,43.4890634 34.509962,44.6090459 34.3882942,45.8368318 C34.2666263,47.0646177 33.2337996,48 32,48 L32,48 L2.4,48 C1.0745166,48 -1.38555833e-13,46.9254834 -1.38555833e-13,45.6 C-1.38555833e-13,44.2745166 1.0745166,43.2 2.4,43.2 L2.4,43.2 L14.725,43.2 C14.5069187,42.5858404 14.5491809,41.9092493 14.841994,41.327002 L14.841994,41.327002 L15.284011,40.441992 L16.715993,41.157992 L16.273,42.041992 C16.1487706,42.2900715 16.1619717,42.5848091 16.3078819,42.8207892 C16.453792,43.0567693 16.711568,43.2002825 16.989014,43.2 L16.989014,43.2 L27.010984,43.2 C27.3143631,43.2010781 27.5920021,43.0296903 27.727,42.758 L27.727,42.758 L32.527,33.158 C32.6512286,32.9099214 32.6380269,32.615185 32.4921167,32.3792063 C32.3462064,32.1432276 32.0884309,31.9997161 31.810986,32 L31.810986,32 L21.789014,32 C21.4856379,31.9989226 21.2080007,32.1703054 21.072998,32.44199 L21.072998,32.44199 L19.115991,36.35799 L17.684009,35.64199 L19.641992,31.727 C20.0460272,30.911405 20.8788334,30.3966763 21.789014,30.399984 L21.789014,30.399984 Z M13.737988,44.8 L2.4,44.8 C1.9581722,44.8 1.6,45.1581722 1.6,45.6 C1.6,46.0418278 1.9581722,46.4 2.4,46.4 L2.4,46.4 L13.737988,46.4 C13.554004,45.8825339 13.554004,45.3174661 13.737988,44.8 L13.737988,44.8 Z M32,44.8 L16,44.8 C15.5581722,44.8 15.2,45.1581722 15.2,45.6 C15.2,46.0418278 15.5581722,46.4 16,46.4 L16,46.4 L32,46.4 C32.4418278,46.4 32.8,46.0418278 32.8,45.6 C32.8,45.1581722 32.4418278,44.8 32,44.8 L32,44.8 Z M35.010986,31.9999996 L34.075,31.9999996 C34.2930822,32.61416 34.2508207,33.2907517 33.958008,33.873 L33.958008,33.873 L29.295,43.2000051 L30.210984,43.2000051 C30.5143631,43.2010781 30.7920021,43.0296903 30.927,42.758 L30.927,42.758 L35.727,33.158 C35.8512286,32.9099214 35.8380269,32.615185 35.6921167,32.3792063 C35.5462064,32.1432276 35.2884309,31.9997161 35.010986,31.9999996 L35.010986,31.9999996 Z M43.2,32 L43.2,39.2 C43.2,39.641826 42.841826,40 42.4,40 L42.4,40 L38.731372,40 L39.765723,41.034326 L38.634277,42.165674 L36.234277,39.765674 C35.9218728,39.4532572 35.9218728,38.9467428 36.234277,38.634326 L36.234277,38.634326 L38.634277,36.234326 L39.765723,37.365674 L38.731372,38.4 L41.6,38.4 L41.6,32 L43.2,32 Z M18.165723,8.234326 L20.565723,10.634326 C20.8781272,10.9467428 20.8781272,11.4532572 20.565723,11.765674 L20.565723,11.765674 L18.165723,14.165674 L17.034277,13.034326 L18.068628,12 L13.6,12 L13.6,37.6 L20,37.6 L20,39.2 L12.8,39.2 C12.358174,39.2 12,38.841826 12,38.4 L12,38.4 L12,11.2 C12,10.758174 12.358174,10.4000044 12.8,10.4 L12.8,10.4 L18.068628,10.4 L17.034277,9.365674 L18.165723,8.234326 Z M23.2,37.6 L23.2,39.2 L21.6,39.2 L21.6,37.6 L23.2,37.6 Z M26.4,37.6 L26.4,39.2 L24.8,39.2 L24.8,37.6 L26.4,37.6 Z M43.2,28.8 L43.2,30.4 L41.6,30.4 L41.6,28.8 L43.2,28.8 Z M43.2,25.6 L43.2,27.2 L41.6,27.2 L41.6,25.6 L43.2,25.6 Z"/>
      <path fill="#FFF" d="M35.2,1.0658141e-14 C28.1307552,1.0658141e-14 22.4,5.7307552 22.4,12.8 C22.4,19.8692448 28.1307552,25.6 35.2,25.6 C42.2692448,25.6 48,19.8692448 48,12.8 C47.9920042,5.7340698 42.2659302,0.007995755 35.2,1.0658141e-14 L35.2,1.0658141e-14 Z M31.831934,17.119208 C31.5267295,15.9686952 31.3446927,14.7889978 31.288892,13.6 L39.111108,13.6 C39.0553073,14.7889978 38.8732705,15.9686952 38.568066,17.119208 C36.3414527,16.708685 34.0585473,16.708685 31.831934,17.119208 L31.831934,17.119208 Z M38.079736,18.654297 C37.4100774,20.4533875 36.4359654,22.1238928 35.2,23.592755 C33.9640342,22.1238939 32.9899215,20.4533896 32.320264,18.6543 C34.226051,18.32598 36.173949,18.32598 38.079736,18.6543 L38.079736,18.654297 Z M35.2,8.790918 C36.3297795,8.79022841 37.4571376,8.68641033 38.568042,8.480756 C38.8732661,9.63127771 39.0553111,10.8109884 39.111108,12 L31.288892,12 C31.3446889,10.8109884 31.5267339,9.63127771 31.831958,8.480756 C32.9428624,8.68641033 34.0702205,8.79022841 35.2,8.790918 L35.2,8.790918 Z M32.320264,6.9457 C32.9899215,5.14661042 33.9640342,3.47610611 35.2,2.007245 C36.4359658,3.47610611 37.4100785,5.14661042 38.079736,6.9457 C36.173949,7.27401999 34.226051,7.27401999 32.320264,6.9457 L32.320264,6.9457 Z M29.687939,12 L24.028882,12 C24.1722066,9.9712717 24.8684933,8.02055753 26.042163,6.3596 C27.3721187,7.12292682 28.7931295,7.7152817 30.271484,8.122612 C29.9394168,9.39060016 29.7437913,10.6904416 29.687939,12 L29.687939,12 Z M29.687939,13.6 C29.7437909,14.9095518 29.9394164,16.2093867 30.271484,17.477368 C28.7931298,17.8847083 27.3721195,18.4770698 26.042163,19.2404 C24.8684832,17.5794477 24.1721954,15.6287306 24.028882,13.6 L29.687939,13.6 Z M40.712061,13.6 L46.371118,13.6 C46.2278046,15.6287306 45.5315168,17.5794477 44.357837,19.2404 C43.0278805,18.4770701 41.6068702,17.884709 40.128516,17.477369 C40.4605836,16.2093874 40.6562092,14.9095522 40.712061,13.6 L40.712061,13.6 Z M40.712061,12 C40.6562091,10.69044 40.4605836,9.39059678 40.128516,8.122607 C41.6068703,7.71527828 43.027881,7.12292509 44.357837,6.3596 C45.5315067,8.02055753 46.2277934,9.9712717 46.371118,12 L40.712061,12 Z M43.327637,5.102185 C42.1671007,5.74409303 40.9339839,6.24495344 39.654537,6.594104 C39.0320776,4.8576418 38.1507996,3.22520631 37.040548,1.752081 C39.445281,2.15393785 41.6529324,3.33029497 43.327637,5.102185 L43.327637,5.102185 Z M33.359448,1.752081 C32.2491971,3.22520786 31.3679192,4.8576406 30.745459,6.5941 C29.4660121,6.24494944 28.2328953,5.74408903 27.072359,5.102181 C28.7470641,3.33029244 30.9547155,2.15393676 33.359448,1.752081 L33.359448,1.752081 Z M27.072339,20.497815 C28.2328843,19.8559111 29.4660072,19.355051 30.745459,19.005896 C31.3679184,20.7423582 32.2491964,22.3747937 33.359448,23.847919 C30.9547113,23.4460562 28.7470553,22.2697004 27.072339,20.497815 L27.072339,20.497815 Z M37.040552,23.847919 C38.1508029,22.3747921 39.0320808,20.7423594 39.654541,19.0059 C40.9339928,19.355055 42.1671157,19.8559151 43.327661,20.497819 C41.6529442,22.2697029 39.4452882,23.4460573 37.040552,23.847919 L37.040552,23.847919 Z"/>
    </g>
  </g>
</svg>
