<svg xmlns="http://www.w3.org/2000/svg" width="16" height="16" viewBox="0 0 16 16">
  <rect width="16" height="16" opacity="0"/>
  <path fill-opacity=".45" d="M14.1890625,5.5171875 L10.221875,4.940625 L8.4484375,1.3453125 C8.4,1.246875 8.3203125,1.1671875 8.221875,1.11875 C7.975,0.996875 7.675,1.0984375 7.5515625,1.3453125 L5.778125,4.940625 L1.8109375,5.5171875 C1.7015625,5.5328125 1.6015625,5.584375 1.525,5.6625 C1.3328125,5.8609375 1.3359375,6.1765625 1.534375,6.3703125 L4.4046875,9.16875 L3.7265625,13.1203125 C3.7078125,13.228125 3.725,13.340625 3.7765625,13.4375 C3.9046875,13.68125 4.2078125,13.7765625 4.4515625,13.646875 L8,11.78125 L11.5484375,13.646875 C11.6453125,13.6984375 11.7578125,13.715625 11.865625,13.696875 C12.1375,13.65 12.3203125,13.3921875 12.2734375,13.1203125 L11.5953125,9.16875 L14.465625,6.3703125 C14.54375,6.29375 14.5953125,6.19375 14.6109375,6.084375 C14.653125,5.8109375 14.4625,5.5578125 14.1890625,5.5171875 Z M10.3875,8.775 L10.9515625,12.0609375 L8,10.5109375 L5.0484375,12.0625 L5.6125,8.7765625 L3.225,6.4484375 L6.525,5.96875 L8,2.9796875 L9.475,5.96875 L12.775,6.4484375 L10.3875,8.775 Z"/>
</svg>
