<svg xmlns="http://www.w3.org/2000/svg" width="64" height="64" viewBox="0 0 64 64">
  <g fill="none" fill-rule="evenodd">
    <rect width="64" height="64" rx="4"/>
    <path fill="#1890FF" fill-rule="nonzero" d="M49.0322581,38.1935484 C50.740129,38.1935484 52.1290323,39.5824516 52.1290323,41.2903226 C52.1290323,42.9981935 50.740129,44.3870968 49.0322581,44.3870968 C47.3243871,44.3870968 45.9354839,42.9981935 45.9354839,41.2903226 C45.9354839,39.5824516 47.3243871,38.1935484 49.0322581,38.1935484 Z M14.9677419,38.1935484 C16.6756129,38.1935484 18.0645161,39.5824516 18.0645161,41.2903226 C18.0645161,42.9981935 16.6756129,44.3870968 14.9677419,44.3870968 C13.259871,44.3870968 11.8709677,42.9981935 11.8709677,41.2903226 C11.8709677,39.5824516 13.259871,38.1935484 14.9677419,38.1935484 Z M32,18.0645161 C33.707871,18.0645161 35.0967742,19.4534194 35.0967742,21.1612903 C35.0967742,22.8691613 33.707871,24.2580645 32,24.2580645 C30.292129,24.2580645 28.9032258,22.8691613 28.9032258,21.1612903 C28.9032258,19.4534194 30.292129,18.0645161 32,18.0645161 Z M52.9032258,11.8709677 L52.9032258,21.9354839 L45.1612903,21.9354839 L45.1612903,11.8709677 L52.9032258,11.8709677 Z M18.8387097,11.8709677 L18.8387097,21.9354839 L11.0967742,21.9354839 L11.0967742,11.8709677 L18.8387097,11.8709677 Z"/>
    <path fill="#003A8C" fill-rule="nonzero" d="M32,8 C34.5618065,8 36.6451613,10.0833548 36.6451613,12.6451613 L36.6451613,12.6451613 L36.6451613,15.8843871 C37.544,16.2049032 38.1935484,17.0565161 38.1935484,18.0645161 L38.1935484,18.0645161 L38.1935484,25.8064516 C38.1935484,26.0789677 38.1378065,26.3375484 38.0510968,26.5806452 L38.0510968,26.5806452 L42.0645161,26.5806452 C43.3450323,26.5806452 44.3870968,27.6227097 44.3870968,28.9032258 L44.3870968,28.9032258 L44.3870968,32 C44.3870968,33.2805161 43.3450323,34.3225806 42.0645161,34.3225806 L42.0645161,34.3225806 L42.0645161,37.4193548 C43.3450323,37.4193548 44.3870968,38.4614194 44.3870968,39.7419355 L44.3870968,39.7419355 L44.3870968,40.516129 L46.0454194,40.516129 C45.9803871,40.7654194 45.9354839,41.0216774 45.9354839,41.2903226 C45.9354839,41.5589677 45.9803871,41.8152258 46.0454194,42.0645161 L46.0454194,42.0645161 L44.3870968,42.0645161 L44.3870968,42.8387097 C44.3870968,44.1192258 43.3450323,45.1612903 42.0645161,45.1612903 L42.0645161,45.1612903 L42.0645161,48.2580645 C43.3450323,48.2580645 44.3870968,49.300129 44.3870968,50.5806452 L44.3870968,50.5806452 L44.3870968,53.6774194 C44.3870968,54.9579355 43.3450323,56 42.0645161,56 L42.0645161,56 L21.9354839,56 C20.6549677,56 19.6129032,54.9579355 19.6129032,53.6774194 L19.6129032,53.6774194 L19.6129032,50.5806452 C19.6129032,49.300129 20.6549677,48.2580645 21.9354839,48.2580645 L21.9354839,48.2580645 L21.9354839,45.1612903 C20.6549677,45.1612903 19.6129032,44.1192258 19.6129032,42.8387097 L19.6129032,42.8387097 L19.6129032,42.0645161 L17.9545806,42.0645161 C18.0196129,41.8152258 18.0645161,41.5589677 18.0645161,41.2903226 C18.0645161,41.0216774 18.0196129,40.7654194 17.9545806,40.516129 L17.9545806,40.516129 L19.6129032,40.516129 L19.6129032,39.7419355 C19.6129032,38.4614194 20.6549677,37.4193548 21.9354839,37.4193548 L21.9354839,37.4193548 L21.9354839,34.3225806 C20.6549677,34.3225806 19.6129032,33.2805161 19.6129032,32 L19.6129032,32 L19.6129032,28.9032258 C19.6129032,27.6227097 20.6549677,26.5806452 21.9354839,26.5806452 L21.9354839,26.5806452 L25.9489032,26.5806452 C25.8621935,26.3375484 25.8064516,26.0789677 25.8064516,25.8064516 L25.8064516,25.8064516 L25.8064516,18.0645161 C25.8064516,17.0565161 26.456,16.2049032 27.3548387,15.8843871 L27.3548387,15.8843871 L27.3548387,12.6451613 C27.3548387,10.0833548 29.4381935,8 32,8 Z M42.0645161,49.8064516 L21.9354839,49.8064516 C21.508129,49.8064516 21.1612903,50.1532903 21.1612903,50.5806452 L21.1612903,50.5806452 L21.1612903,53.6774194 C21.1612903,54.1047742 21.508129,54.4516129 21.9354839,54.4516129 L21.9354839,54.4516129 L42.0645161,54.4516129 C42.491871,54.4516129 42.8387097,54.1047742 42.8387097,53.6774194 L42.8387097,53.6774194 L42.8387097,50.5806452 C42.8387097,50.1532903 42.491871,49.8064516 42.0645161,49.8064516 L42.0645161,49.8064516 Z M27.3548387,51.3548387 L27.3548387,52.9032258 L25.8064516,52.9032258 L25.8064516,51.3548387 L27.3548387,51.3548387 Z M24.2580645,51.3548387 L24.2580645,52.9032258 L22.7096774,52.9032258 L22.7096774,51.3548387 L24.2580645,51.3548387 Z M40.516129,45.1612903 L23.483871,45.1612903 L23.483871,48.2580645 L40.516129,48.2580645 L40.516129,45.1612903 Z M42.0645161,38.9677419 L21.9354839,38.9677419 C21.508129,38.9677419 21.1612903,39.3145806 21.1612903,39.7419355 L21.1612903,39.7419355 L21.1612903,42.8387097 C21.1612903,43.2660645 21.508129,43.6129032 21.9354839,43.6129032 L21.9354839,43.6129032 L42.0645161,43.6129032 C42.491871,43.6129032 42.8387097,43.2660645 42.8387097,42.8387097 L42.8387097,42.8387097 L42.8387097,39.7419355 C42.8387097,39.3145806 42.491871,38.9677419 42.0645161,38.9677419 L42.0645161,38.9677419 Z M38.1935484,40.516129 L38.1935484,42.0645161 L36.6451613,42.0645161 L36.6451613,40.516129 L38.1935484,40.516129 Z M41.2903226,40.516129 L41.2903226,42.0645161 L39.7419355,42.0645161 L39.7419355,40.516129 L41.2903226,40.516129 Z M56,8 L56,25.0322581 L49.8064516,25.0322581 L49.8064516,38.3034839 C49.5571613,38.2384516 49.3009032,38.1935484 49.0322581,38.1935484 C48.7636129,38.1935484 48.5073548,38.2384516 48.2580645,38.3034839 L48.2580645,38.3034839 L48.2580645,25.0322581 L42.0645161,25.0322581 L42.0645161,8 L56,8 Z M21.9354839,8 L21.9354839,25.0322581 L15.7419355,25.0322581 L15.7419355,38.3034839 C15.4926452,38.2384516 15.2363871,38.1935484 14.9677419,38.1935484 C14.6990968,38.1935484 14.4428387,38.2384516 14.1935484,38.3034839 L14.1935484,38.3034839 L14.1935484,25.0322581 L8,25.0322581 L8,8 L21.9354839,8 Z M40.516129,34.3225806 L23.483871,34.3225806 L23.483871,37.4193548 L40.516129,37.4193548 L40.516129,34.3225806 Z M42.0645161,28.1290323 L21.9354839,28.1290323 C21.508129,28.1290323 21.1612903,28.4766452 21.1612903,28.9032258 L21.1612903,28.9032258 L21.1612903,32 C21.1612903,32.4265806 21.508129,32.7741935 21.9354839,32.7741935 L21.9354839,32.7741935 L42.0645161,32.7741935 C42.491871,32.7741935 42.8387097,32.4265806 42.8387097,32 L42.8387097,32 L42.8387097,28.9032258 C42.8387097,28.4766452 42.491871,28.1290323 42.0645161,28.1290323 L42.0645161,28.1290323 Z M24.2580645,29.6774194 L24.2580645,31.2258065 L22.7096774,31.2258065 L22.7096774,29.6774194 L24.2580645,29.6774194 Z M27.3548387,29.6774194 L27.3548387,31.2258065 L25.8064516,31.2258065 L25.8064516,29.6774194 L27.3548387,29.6774194 Z M35.8709677,17.2903226 L28.1290323,17.2903226 C27.7016774,17.2903226 27.3548387,17.6379355 27.3548387,18.0645161 L27.3548387,18.0645161 L27.3548387,25.8064516 C27.3548387,26.2330323 27.7016774,26.5806452 28.1290323,26.5806452 L28.1290323,26.5806452 L35.8709677,26.5806452 C36.2983226,26.5806452 36.6451613,26.2330323 36.6451613,25.8064516 L36.6451613,25.8064516 L36.6451613,18.0645161 C36.6451613,17.6379355 36.2983226,17.2903226 35.8709677,17.2903226 L35.8709677,17.2903226 Z M32.7741935,24.148129 L32.7741935,25.8064516 L31.2258065,25.8064516 L31.2258065,24.148129 C31.4750968,24.2131613 31.7313548,24.2580645 32,24.2580645 C32.2686452,24.2580645 32.5249032,24.2131613 32.7741935,24.148129 L32.7741935,24.148129 Z M54.4516129,9.5483871 L43.6129032,9.5483871 L43.6129032,23.483871 L54.4516129,23.483871 L54.4516129,9.5483871 Z M20.3870968,9.5483871 L9.5483871,9.5483871 L9.5483871,23.483871 L20.3870968,23.483871 L20.3870968,9.5483871 Z M46.7096774,20.3870968 L46.7096774,21.9354839 L45.1612903,21.9354839 L45.1612903,20.3870968 L46.7096774,20.3870968 Z M52.9032258,20.3870968 L52.9032258,21.9354839 L48.2580645,21.9354839 L48.2580645,20.3870968 L52.9032258,20.3870968 Z M12.6451613,20.3870968 L12.6451613,21.9354839 L11.0967742,21.9354839 L11.0967742,20.3870968 L12.6451613,20.3870968 Z M18.8387097,20.3870968 L18.8387097,21.9354839 L14.1935484,21.9354839 L14.1935484,20.3870968 L18.8387097,20.3870968 Z M52.9032258,17.2903226 L52.9032258,18.8387097 L51.3548387,18.8387097 L51.3548387,17.2903226 L52.9032258,17.2903226 Z M49.8064516,17.2903226 L49.8064516,18.8387097 L45.1612903,18.8387097 L45.1612903,17.2903226 L49.8064516,17.2903226 Z M18.8387097,17.2903226 L18.8387097,18.8387097 L17.2903226,18.8387097 L17.2903226,17.2903226 L18.8387097,17.2903226 Z M15.7419355,17.2903226 L15.7419355,18.8387097 L11.0967742,18.8387097 L11.0967742,17.2903226 L15.7419355,17.2903226 Z M52.9032258,14.1935484 L52.9032258,15.7419355 L45.1612903,15.7419355 L45.1612903,14.1935484 L52.9032258,14.1935484 Z M18.8387097,14.1935484 L18.8387097,15.7419355 L11.0967742,15.7419355 L11.0967742,14.1935484 L18.8387097,14.1935484 Z M32,9.5483871 C30.292129,9.5483871 28.9032258,10.9372903 28.9032258,12.6451613 L28.9032258,12.6451613 L28.9032258,15.7419355 L35.0967742,15.7419355 L35.0967742,12.6451613 C35.0967742,10.9372903 33.707871,9.5483871 32,9.5483871 Z M52.9032258,11.0967742 L52.9032258,12.6451613 L45.1612903,12.6451613 L45.1612903,11.0967742 L52.9032258,11.0967742 Z M18.8387097,11.0967742 L18.8387097,12.6451613 L11.0967742,12.6451613 L11.0967742,11.0967742 L18.8387097,11.0967742 Z"/>
  </g>
</svg>
