<svg xmlns="http://www.w3.org/2000/svg" width="64" height="64" viewBox="0 0 64 64">
  <g fill="none" fill-rule="evenodd">
    <rect width="64" height="64" rx="4"/>
    <path fill="#1890FF" fill-rule="nonzero" d="M31.7998984,9.00027694 C32.3456172,8.99849569 32.8908672,9.03327694 33.4318984,9.10424569 L34.4158984,12.5602457 C34.6719297,12.6322457 34.9198984,12.7122144 35.1678672,12.8082144 C35.6217109,12.9732144 36.0605547,13.1766519 36.4798984,13.4161832 L38.1678672,12.4801832 L39.6238984,11.6721519 C40.0577734,12.0017769 40.4668047,12.3627144 40.8478984,12.7521519 C41.2373359,13.1332457 41.5982734,13.5422769 41.9278984,13.9761519 L40.1838672,17.1121832 C40.5511797,17.7660894 40.8386172,18.4617144 41.0398984,19.1841519 L44.4958984,20.1681519 C44.6345547,21.2517144 44.6345547,22.3485894 44.4958984,23.4321519 L41.0400859,24.4165269 C40.8402109,25.1369019 40.5527734,25.8300894 40.1840547,26.4805269 L41.9280859,29.6245269 C41.5984609,30.0584019 41.2375234,30.4674332 40.8480859,30.8485269 C40.4669922,31.2379644 40.0579609,31.5989019 39.6240859,31.9285269 L38.1680547,31.1204957 L36.4880547,30.1844957 C36.0687109,30.4217769 35.6297734,30.6224957 35.1760234,30.7844957 C34.9281484,30.8853707 34.6743672,30.9707769 34.4159922,31.0405269 L33.4319922,34.4965269 C32.8909609,34.5674957 32.3457109,34.6022769 31.7999922,34.6004957 C31.3990234,34.6035894 30.9983359,34.5822144 30.5999922,34.5364644 C30.4559922,34.5284957 30.3119922,34.5124644 30.1679922,34.4964332 L29.1839922,31.0404332 C28.4636172,30.8405582 27.7704297,30.5531207 27.1199922,30.1844019 L26.0320234,30.7923707 L23.9759922,31.9283394 C23.6449609,31.6786832 23.3296797,31.4088707 23.0320234,31.1203082 C22.9360234,31.0322769 22.8400234,30.9443394 22.7519922,30.8483394 C22.3625547,30.4672457 22.0016172,30.0582144 21.6719922,29.6243394 L23.4160234,26.4883082 C23.0487109,25.8344019 22.7612734,25.1387769 22.5599922,24.4163394 L19.1039922,23.4323394 C18.9653359,22.3487769 18.9653359,21.2519019 19.1039922,20.1683394 L22.5599922,19.1843394 C22.7598672,18.4639644 23.0473047,17.7707769 23.4160234,17.1203394 L21.6719922,13.9763394 C22.0016172,13.5424644 22.3625547,13.1334332 22.7519922,12.7523394 C22.8400234,12.6563394 22.9360234,12.5683082 23.0320234,12.4803707 C23.3297734,12.1918082 23.6450547,11.9219957 23.9759922,11.6723394 L26.0239609,12.8163707 L27.1119297,13.4163707 C27.7658359,13.0490582 28.4614609,12.7616207 29.1838984,12.5603394 L30.1678984,9.10433944 C30.3118984,9.08830819 30.4558984,9.07237069 30.5998984,9.06430819 C30.9982422,9.01865194 31.3989297,8.99727694 31.7998984,9.00027694 Z M32,16 C28.6862915,16 26,18.6862915 26,22 C26,25.3137085 28.6862915,28 32,28 C35.3137085,28 38,25.3137085 38,22 C38,18.6862915 35.3137085,16 32,16 Z"/>
    <path fill="#003A8C" fill-rule="nonzero" d="M37.3217187,18.0440937 C35.6255,15.5053437 32.3720937,14.5183437 29.55125,15.6866562 C26.7304062,16.8549687 25.1276562,19.8532812 25.7231562,22.8479375 C26.3186562,25.8425937 28.94675,27.9996152 32,27.9996152 C33.6982812,28.004 35.32775,27.3290937 36.5255937,26.1251562 C38.6846562,23.9662812 39.0179375,20.5828437 37.3217187,18.0440937 Z M34.6672812,25.590125 C32.7634062,26.8625937 30.225875,26.6130312 28.6064375,24.9940625 C27.7033437,24.0956562 27.197,22.8735312 27.1999867,21.5996562 C27.1999867,19.3097187 28.817375,17.338625 31.06325,16.8917187 C33.309125,16.4448125 35.5579062,17.6465937 36.4344687,19.7620625 C37.3110312,21.8775312 36.5710625,24.3176562 34.6672812,25.590125 Z"/>
    <path fill="#003A8C" fill-rule="nonzero" d="M30.7775937 18.6426875C29.3668437 19.226375 28.5649062 20.7253438 28.8621875 22.2228125 29.1594687 23.7202813 30.4732812 24.7991563 32 24.799625 32.84975 24.8066563 33.6660312 24.4689688 34.262375 23.863625 35.3425625 22.7846563 35.51 21.0929375 34.6625 19.8230938 33.8149062 18.55325 32.1883437 18.059 30.7775937 18.6426875zM33.1311875 22.7315938C32.5050312 23.352125 31.4957187 23.352125 30.8695625 22.7315938 30.5643125 22.4346875 30.3945312 22.025375 30.3999687 21.5995625 30.4001562 20.8754375 30.8867187 20.2416875 31.5861875 20.0544688 32.2856562 19.86725 33.02375 20.1731563 33.3857187 20.8003438 33.7477812 21.4275313 33.6433437 22.219625 33.1311875 22.7315938zM15.2 49.5995937L18.3999687 49.5995937C18.8418125 49.5995937 19.1999375 49.2414687 19.1999375 48.799625 19.1999375 48.3577812 18.8418125 47.9996562 18.3999687 47.9996562L15.2 47.9996562C14.7581562 47.9996562 14.4000312 48.3577812 14.4000312 48.799625 14.4000312 49.2414687 14.7581562 49.5995937 15.2 49.5995937zM15.2 52.7995625L16.8000312 52.7995625C17.241875 52.7995625 17.6 52.4414375 17.6 51.9995937 17.6 51.55775 17.2417812 51.199625 16.8000312 51.199625L15.2 51.199625C14.7581562 51.199625 14.4000312 51.55775 14.4000312 51.9995937 14.4000312 52.4414375 14.7581562 52.7995625 15.2 52.7995625zM32 49.5995937L35.1999687 49.5995937C35.6418125 49.5995937 35.9999375 49.2414687 35.9999375 48.799625 35.9999375 48.3577812 35.6418125 47.9996562 35.1999687 47.9996562L32 47.9996562C31.5581562 47.9996562 31.2000312 48.3577812 31.2000312 48.799625 31.2000312 49.2414687 31.5581562 49.5995937 32 49.5995937zM32 52.7995625L33.6000312 52.7995625C34.041875 52.7995625 34.4 52.4414375 34.4 51.9995937 34.4 51.55775 34.0417812 51.199625 33.6000312 51.199625L32 51.199625C31.5581562 51.199625 31.2000312 51.55775 31.2000312 51.9995937 31.2000312 52.4414375 31.5581562 52.7995625 32 52.7995625z"/>
    <path fill="#003A8C" fill-rule="nonzero" d="M54.3999687,44.7995937 L50.3999375,44.7995937 L50.3999375,41.599625 C50.3942188,40.7111562 49.67,39.9951875 48.7815313,39.9995937 L32.7999688,39.9995937 L32.7999688,35.17475 C33.1199375,35.156375 33.44,35.1291875 33.7384062,35.0883125 C34.0533125,35.0454687 34.313,34.820375 34.4,34.51475 L35.264,31.47875 C35.7493438,31.319375 36.2222187,31.1239062 36.6784063,30.8939375 L39.433625,32.42675 C39.7110313,32.58125 40.0535,32.5570625 40.3064375,32.3651562 C40.7670313,32.015375 41.2012813,31.6322187 41.605625,31.2187812 C42.023,30.8105937 42.4099063,30.3723125 42.76325,29.9075937 C42.9550625,29.6550312 42.9795313,29.3129375 42.8256875,29.035625 L41.2937188,26.2731875 C41.5239688,25.8197187 41.7191563,25.3492812 41.8776875,24.866 L44.9152812,23.9995625 C45.221375,23.9122812 45.4466563,23.6518437 45.4888438,23.336375 C45.6370625,22.1822187 45.6370625,21.0138125 45.4888438,19.8595625 C45.4454375,19.5453125 45.2204375,19.286375 44.9152812,19.1995625 L41.87525,18.3347187 C41.7155938,17.8500312 41.5204063,17.3779062 41.2912812,16.9219062 L42.82325,14.1659375 C42.9774687,13.8884375 42.953,13.545875 42.7608125,13.293125 C42.4124375,12.8320625 42.030875,12.3970625 41.6192188,11.9915 C41.2110313,11.574125 40.77275,11.1872187 40.3080313,10.833875 C40.0554688,10.6420625 39.713375,10.6175937 39.4360625,10.7714375 L36.673625,12.30425 C36.219875,12.074 35.7491563,11.8788125 35.2655938,11.7202812 L34.4,8.684375 C34.3127188,8.37828125 34.0522813,8.153 33.7368125,8.1108125 C32.5825625,7.963625 31.41425,7.963625 30.26,8.1108125 C29.94575,8.15421875 29.6868125,8.37921875 29.6,8.684375 L28.736,11.7244062 C28.2506563,11.8837812 27.7777813,12.07925 27.3215938,12.3092187 L24.5647812,10.772375 C24.287375,10.617875 23.9449063,10.6420625 23.6919688,10.8339687 C23.231375,11.18375 22.797125,11.5669062 22.3927812,11.9803437 C21.9752187,12.3884375 21.5883125,12.826625 21.2351562,13.2915312 C21.0430625,13.544 21.0183125,13.886 21.1719687,14.1635 L22.7047812,16.9259375 C22.4745312,17.3794062 22.2793437,17.8498437 22.1208125,18.333125 L19.0848125,19.1995625 C18.7787187,19.2868437 18.5534375,19.5472812 18.51125,19.86275 C18.3630312,21.0169062 18.3630312,22.1853125 18.51125,23.3395625 C18.5535312,23.6550312 18.7787187,23.9154687 19.0848125,24.00275 L22.1248437,24.8675937 C22.2844062,25.3522812 22.4795937,25.8245 22.7088125,26.2804062 L21.1768437,29.036375 C21.022625,29.313875 21.0470937,29.6564375 21.2392812,29.9091875 C21.58925,30.3696875 21.972125,30.804125 22.3849063,31.2092187 C22.7930937,31.6265937 23.231375,32.0135 23.6960937,32.3668437 C23.9486562,32.5586562 24.29075,32.583125 24.5680625,32.4292812 L27.3305,30.8964687 C27.78425,31.1267187 28.2549687,31.3219062 28.7385312,31.4804375 L29.6000937,34.5148437 C29.687375,34.8209375 29.9478125,35.0462187 30.2632812,35.0884062 C30.5657187,35.1291875 30.8809062,35.156375 31.2017187,35.1748437 L31.2017187,39.9996875 L15.218375,39.9996875 C14.3299062,39.9952812 13.6056875,40.71125 13.5999687,41.5997187 L13.5999687,44.7996875 L9.60003125,44.7996875 C8.71634375,44.7995937 8,45.5159375 8,46.399625 L8,54.3995937 C8,55.2832812 8.71634375,55.999625 9.60003125,55.999625 L20.8000625,55.999625 C21.68375,55.999625 22.4000937,55.2832812 22.4000937,54.3995937 L22.4000937,46.399625 C22.4000937,45.5159375 21.68375,44.7995937 20.8000625,44.7995937 L15.2040312,44.7995937 L15.2184687,41.599625 L31.2000312,41.599625 L31.2000312,44.7995937 L26.4000312,44.7995937 C25.5163438,44.7995937 24.8,45.5159375 24.8,46.399625 L24.8,54.3995937 C24.8,55.2832812 25.5163437,55.999625 26.4000312,55.999625 L37.6000625,55.999625 C38.48375,55.999625 39.2000938,55.2832812 39.2000938,54.3995937 L39.2000938,46.399625 C39.2000938,45.5159375 38.48375,44.7995937 37.6000625,44.7995937 L32.8000625,44.7995937 L32.8000625,41.599625 L48.8,41.599625 L48.8,44.7995937 L43.2000313,44.7995937 C42.3163438,44.7995937 41.6,45.5159375 41.6,46.399625 L41.6,54.3995937 C41.6,55.2832812 42.3163438,55.999625 43.2000313,55.999625 L54.4000625,55.999625 C55.28375,55.999625 56.0000937,55.2832812 56.0000937,54.3995937 L56.0000937,46.399625 C56.0000937,45.5159375 55.2836562,44.7995937 54.3999687,44.7995937 Z M11.1999688,54.3995937 L9.60003125,54.3995937 L9.60003125,46.399625 L11.2000625,46.399625 L11.2000625,54.3995937 L11.1999688,54.3995937 Z M20.7999688,46.399625 L20.7999688,54.3995937 L12.8,54.3995937 L12.8,46.399625 L20.7999688,46.399625 Z M27.9999688,54.3995937 L26.3999375,54.3995937 L26.3999375,46.399625 L27.9999688,46.399625 L27.9999688,54.3995937 Z M37.5999688,46.399625 L37.5999688,54.3995937 L29.6,54.3995937 L29.6,46.399625 L37.5999688,46.399625 Z M32,33.5995625 C31.657625,33.5995625 31.3151562,33.5859687 30.99125,33.5587812 L30.1536875,30.620375 C30.0774688,30.35225 29.8670938,30.1430937 29.5985,30.068375 C28.9412188,29.8866875 28.3089687,29.6244687 27.7160937,29.2875312 C27.4727187,29.1506562 27.1755312,29.1506562 26.9320625,29.2875312 L24.2569063,30.7675625 C24.0014375,30.5541875 23.7531875,30.3238437 23.5120625,30.0763437 C23.2720625,29.8427187 23.0465,29.5963437 22.8320937,29.34275 L24.3153125,26.6763125 C24.4506875,26.433875 24.4506875,26.1386562 24.3153125,25.8963125 C23.9786562,25.2979062 23.7154062,24.6609687 23.5312812,23.9994687 C23.4565625,23.730875 23.2475,23.5205 22.9792812,23.4442812 L20.040875,22.6083125 C20.0144375,22.2834687 20.0000937,21.945875 20.0000937,21.5994687 C20.0000937,21.2530625 20.0145312,20.9154687 20.040875,20.5890312 L22.9792812,19.7530625 C23.2475,19.6768437 23.4565625,19.4664687 23.5312812,19.197875 C23.7134375,18.5406875 23.975375,17.90825 24.3112812,17.3147187 C24.4477812,17.0715312 24.4477812,16.7747187 24.3112812,16.5315312 L22.83125,13.856375 C23.04725,13.6003437 23.2781562,13.3520937 23.5240625,13.1115312 C23.7568437,12.8715312 24.0040625,12.645125 24.2560625,12.4315625 L26.9225,13.9147812 C27.165125,14.0504375 27.4607187,14.0504375 27.7033437,13.9147812 C28.3020312,13.5786875 28.938875,13.3154375 29.6001875,13.13075 C29.8687812,13.0560312 30.0791562,12.8469687 30.155375,12.57875 L30.9913437,9.64034375 C31.6638125,9.585125 32.3396562,9.585125 33.012125,9.64034375 L33.8480937,12.57875 C33.9243125,12.8469687 34.1346875,13.0560312 34.4032812,13.13075 C35.0605625,13.3124375 35.6928125,13.5746562 36.2856875,13.9115937 C36.5290625,14.0484687 36.82625,14.0484687 37.0697187,13.9115937 L39.7432813,12.4315625 C39.9981875,12.6449375 40.2464375,12.8752812 40.488125,13.1227812 C40.728125,13.3564062 40.9536875,13.6027812 41.1680937,13.855625 L39.684875,16.5228125 C39.5495,16.76525 39.5495,17.0604687 39.684875,17.3028125 C40.0215312,17.9012187 40.2847812,18.5381562 40.4689062,19.1996562 C40.543625,19.46825 40.7527812,19.678625 41.0209062,19.7548437 L43.9593125,20.5908125 C43.98575,20.91725 44.0000937,21.2548437 44.0000937,21.60125 C44.0000937,21.9476562 43.9856562,22.28525 43.9593125,22.6116875 L41.0209062,23.4476562 C40.7526875,23.523875 40.543625,23.73425 40.4689062,24.0028437 C40.28675,24.6600312 40.0248125,25.2924687 39.6889063,25.886 C39.5524062,26.1291875 39.5524062,26.426 39.6889063,26.6691875 L41.172875,29.3443437 C40.9595,29.5998125 40.7285938,29.8480625 40.4800625,30.0891875 C40.2472813,30.3291875 40.0000625,30.5555937 39.7480625,30.7691562 L37.081625,29.2859375 C36.839,29.1502812 36.5434063,29.1502812 36.3007812,29.2859375 C35.7006875,29.62175 35.0625312,29.8844375 34.4,30.068375 C34.1314062,30.1430937 33.9210313,30.3521562 33.8448125,30.620375 L33.0088438,33.5587812 C32.6864375,33.5859687 32.3439688,33.5995625 32,33.5995625 Z M44.7999687,54.3995937 L43.1999375,54.3995937 L43.1999375,46.399625 L44.7999687,46.399625 L44.7999687,54.3995937 Z M54.3999688,54.3995937 L46.4,54.3995937 L46.4,46.399625 L54.3999688,46.399625 L54.3999688,54.3995937 Z"/>
    <path fill="#003A8C" fill-rule="nonzero" d="M48.8 49.5995937L51.9999687 49.5995937C52.4418125 49.5995937 52.7999375 49.2414687 52.7999375 48.799625 52.7999375 48.3577812 52.4418125 47.9996562 51.9999687 47.9996562L48.8 47.9996562C48.3581562 47.9996562 48.0000312 48.3577812 48.0000312 48.799625 48.0000312 49.2414687 48.3581562 49.5995937 48.8 49.5995937zM48.8 52.7995625L50.4000312 52.7995625C50.841875 52.7995625 51.2 52.4414375 51.2 51.9995937 51.2 51.55775 50.8417812 51.199625 50.4000312 51.199625L48.8 51.199625C48.3581562 51.199625 48.0000312 51.55775 48.0000312 51.9995937 48.0000312 52.4414375 48.3581562 52.7995625 48.8 52.7995625z"/>
  </g>
</svg>
